<svg width="68" height="80" viewBox="0 0 68 80" fill="none" xmlns="http://www.w3.org/2000/svg">
<path d="M62.0148 73.5195C62.0395 73.7609 62.4198 73.7633 62.395 73.5201C62.2875 72.4674 62.9328 71.4778 63.9473 71.157C64.7436 70.9052 65.5466 71.2035 65.7831 72.0481C65.8873 72.4205 65.891 72.7746 65.7888 73.1149C65.7857 73.1149 65.7827 73.1141 65.7796 73.1141C65.4312 73.1085 65.0983 73.2018 64.7813 73.3396C64.5383 73.4453 64.1995 73.6125 64.149 73.9044C64.0912 74.2389 64.4775 74.4602 64.7583 74.5019C65.1052 74.5535 65.4227 74.3578 65.6499 74.1113C65.8176 73.9292 65.9454 73.7311 66.041 73.5225C66.0926 73.5311 66.1442 73.5386 66.1951 73.5517C66.89 73.7311 67.4857 74.3141 67.5827 75.0409C67.6687 75.6842 67.1683 76.0699 66.5814 76.1864C66.4287 75.9738 66.239 75.7897 66.0193 75.6643C65.5804 75.4137 65.1141 75.5251 64.9361 76.0183C64.9153 76.0759 64.9364 76.1639 64.9847 76.2033C65.3743 76.5211 65.8884 76.6379 66.3876 76.5935C66.5414 76.8705 66.6228 77.1906 66.5769 77.5018C66.4986 78.0314 66.0325 78.5369 65.5091 78.6505C64.4542 78.8794 63.4221 77.7534 63.1141 76.8563C63.035 76.626 62.6677 76.7249 62.7473 76.9566C63.0025 77.6998 63.5504 78.3697 64.2354 78.7585C64.8105 79.0848 65.5215 79.1835 66.1011 78.8112C66.6903 78.4327 67.0546 77.7523 66.9452 77.0523C66.9172 76.8735 66.8586 76.6946 66.7789 76.5236C66.8991 76.4913 67.0172 76.4528 67.1288 76.4014C67.9037 76.0445 68.1407 75.2562 67.8192 74.4868C67.533 73.8025 66.8908 73.3051 66.17 73.1606C66.2492 72.8479 66.2601 72.5164 66.2009 72.1753C66.1065 71.6318 65.8121 71.1105 65.3038 70.8601C64.8406 70.6319 64.2943 70.641 63.8113 70.8024C62.6661 71.1845 61.891 72.3085 62.0148 73.5195ZM66.1137 76.2216C65.8379 76.2099 65.5729 76.1392 65.3643 76.0097C65.553 75.7665 65.9271 76.0308 66.1137 76.2216ZM65.6205 73.5039C65.6063 73.5289 65.5941 73.554 65.5787 73.5787C65.4385 73.8028 65.2202 74.0828 64.9397 74.1263C64.8064 74.1469 64.6844 74.0992 64.5761 74.0239C64.4962 73.9686 64.5162 73.9616 64.58 73.895C64.7488 73.7187 65.05 73.6272 65.2777 73.5618C65.3904 73.5295 65.5052 73.5129 65.6205 73.5039Z" fill="black"/>
<path d="M61.7229 74.4704H61.7224L55.0319 74.4584C54.9188 74.4579 54.8272 74.3664 54.8275 74.2532C54.828 74.1404 54.9196 74.0488 55.0322 74.0488H55.0327L61.7232 74.0609C61.8364 74.0613 61.9279 74.1529 61.9276 74.266C61.9271 74.3789 61.8356 74.4704 61.7229 74.4704Z" fill="black"/>
<path d="M61.6093 76.2722H61.6088L57.418 76.2645C57.3049 76.2641 57.2132 76.1725 57.2136 76.0594C57.2141 75.9465 57.3057 75.855 57.4183 75.855H57.4188L61.6096 75.8626C61.7227 75.8631 61.8143 75.9547 61.814 76.0678C61.8137 76.1806 61.722 76.2722 61.6093 76.2722Z" fill="black"/>
<path d="M18.1682 49.5059C11.1264 57.055 7.77828 67.092 8.9565 77.384C9.20308 79.5385 12.583 79.3572 12.3347 77.1886C11.2525 67.7343 14.2218 58.6962 20.6953 51.7566C22.1833 50.1608 19.6542 47.9127 18.1682 49.5059Z" fill="black"/>
<path d="M12.4433 74.9509C12.4433 74.9509 14.6001 73.2071 10.2935 73.0656C5.67607 72.9138 8.58005 74.8601 8.58005 74.8601L7.88484 75.2479C7.88484 75.2479 2.92819 71.2973 1.04351 75.1768C-0.841329 79.0564 4.52051 79.7616 7.80936 79.843C11.0984 79.9242 14.6243 80.6968 12.4433 74.9509Z" fill="#FF558B"/>
<path d="M10.1277 79.9993C9.69419 79.9993 9.23775 79.9787 8.77443 79.9579C8.45347 79.9434 8.12938 79.9288 7.80748 79.9209C5.20711 79.8565 1.8945 79.4299 0.879108 77.7624C0.44423 77.0481 0.475951 76.1665 0.973179 75.1425C1.42009 74.2228 2.07655 73.6591 2.92412 73.4669C4.07483 73.2064 5.37728 73.689 6.26751 74.1403C7.09351 74.559 7.72763 75.0286 7.89201 75.1544L8.43424 74.8519C8.16375 74.6514 7.46917 74.0798 7.62324 73.6019C7.77388 73.1342 8.6477 72.9342 10.2961 72.9874C11.933 73.0413 12.8527 73.3364 13.0301 73.8654C13.191 74.3451 12.6908 74.8367 12.5358 74.9745C13.2976 76.9999 13.3964 78.36 12.8377 79.1318C12.3202 79.8467 11.3089 79.9993 10.1277 79.9993ZM3.61402 73.5493C3.3915 73.5493 3.1721 73.571 2.95865 73.6193C2.15968 73.8004 1.53901 74.3359 1.11397 75.2107C0.641277 76.1837 0.607056 77.0149 1.01271 77.681C1.45494 78.4072 2.92615 79.6437 7.81154 79.7645C8.13438 79.7726 8.45956 79.7873 8.78146 79.8016C10.4639 79.8773 12.0531 79.949 12.7112 79.0397C13.2412 78.3076 13.1298 76.9789 12.3702 74.9784L12.3502 74.9255L12.3941 74.89C12.4005 74.8848 13.0332 74.3653 12.8818 73.9148C12.7754 73.5983 12.2397 73.2075 10.2908 73.1435C8.36361 73.0799 7.85748 73.3838 7.77169 73.6496C7.64684 74.037 8.34424 74.6076 8.62348 74.7948L8.72942 74.8658L7.87733 75.3413L7.83623 75.3086C7.8117 75.2893 5.60214 73.5493 3.61402 73.5493Z" fill="black"/>
<path d="M10.9953 75.3109C10.8571 75.3109 10.711 75.3045 10.5571 75.2896L10.5721 75.134C11.6883 75.2421 12.4005 74.8849 12.4075 74.8813L12.4786 75.0206C12.4524 75.034 11.8989 75.3109 10.9953 75.3109Z" fill="black"/>
<path d="M9.3208 75.1693C9.24408 75.1693 8.98174 75.1504 8.54486 74.9296L8.61533 74.79C9.08377 75.0269 9.32814 75.0132 9.33096 75.0129L9.34408 75.1685C9.34236 75.1686 9.33455 75.1693 9.3208 75.1693Z" fill="black"/>
<path d="M7.89027 75.2422C8.05277 75.3194 8.1973 75.4158 8.33511 75.5191C8.47418 75.6211 8.60277 75.7344 8.72886 75.8502C8.85168 75.9695 8.97246 76.0911 9.08246 76.2239C9.19371 76.3556 9.29855 76.4939 9.38543 76.6514L9.37465 76.6628L8.62168 75.9639L7.87933 75.2536L7.89027 75.2422Z" fill="black"/>
<path d="M7.89279 75.2471C7.95794 75.3849 7.99685 75.5244 8.02638 75.6647C8.05747 75.8049 8.07326 75.9461 8.0856 76.0875C8.0931 76.2294 8.09748 76.3714 8.08638 76.5146C8.07701 76.6575 8.05826 76.8013 8.01357 76.9468L7.99794 76.9479L7.92982 76.0986L7.87732 75.2483L7.89279 75.2471Z" fill="black"/>
<path d="M3.46039 74.173C3.31116 74.251 3.16428 74.3268 3.03083 74.4243C2.96051 74.466 2.89629 74.5173 2.82925 74.5626C2.76503 74.6124 2.70377 74.6656 2.64158 74.7162C2.4 74.9279 2.18685 75.169 2.04434 75.4503C1.88824 75.7219 1.77932 76.0246 1.7376 76.344L1.71338 76.4629L1.70494 76.5842L1.68838 76.8289C1.67838 76.9934 1.69494 77.1583 1.68541 77.3292L1.67009 77.3322C1.64931 77.1661 1.61884 77.0006 1.60618 76.8337L1.60274 76.5821L1.60181 76.4563L1.61681 76.3313L1.64806 76.0813L1.71244 75.8375C1.72916 75.7546 1.76745 75.6789 1.7987 75.601C1.83073 75.5231 1.86136 75.4445 1.90793 75.3739C2.07075 75.0793 2.29968 74.8228 2.56704 74.6196C2.83534 74.4179 3.13521 74.2576 3.45617 74.1577L3.46039 74.173Z" fill="white"/>
<path d="M47.3937 68.3082C44.7882 69.2236 42.2077 70.2135 39.585 71.08C37.1043 71.8996 34.1894 72.717 31.5644 72.1444C25.0835 70.7309 30.5682 62.9692 32.5296 59.8286C33.6866 57.9763 30.7601 56.2757 29.6076 58.1207C26.823 62.5791 21.7536 70.6217 28.1797 74.4317C34.2269 78.0169 42.4668 73.6182 48.2932 71.5711C50.3343 70.854 49.4558 67.5836 47.3937 68.3082Z" fill="black"/>
<path d="M43.9574 69.086C43.9574 69.086 41.5267 67.7504 43.0267 71.7896C44.6349 76.1205 45.3364 72.6958 45.3364 72.6958L45.9586 73.1923C45.9586 73.1923 44.1796 79.2759 48.4838 79.5509C52.7882 79.8259 51.4102 74.5964 50.2399 71.5218C49.0697 68.4472 48.4493 64.8913 43.9574 69.086Z" fill="#FF558B"/>
<path d="M48.7987 79.6395C48.6949 79.6395 48.5884 79.6361 48.4788 79.6291C47.4586 79.5639 46.6882 79.17 46.1894 78.458C45.5122 77.4916 45.4658 76.1033 45.5462 75.1087C45.6209 74.1857 45.8156 73.4209 45.8696 73.2212L45.384 72.834C45.3009 73.1603 45.0351 74.0196 44.5346 74.058C44.043 74.096 43.5275 73.3625 42.9535 71.8169C42.3835 70.2816 42.3083 69.3184 42.7306 68.954C43.1137 68.623 43.758 68.9001 43.9442 68.9914C45.5298 67.5195 46.751 66.9134 47.6775 67.1376C48.8501 67.4222 49.3995 68.9587 49.9811 70.5854C50.0891 70.8878 50.1985 71.1933 50.313 71.4941C51.2383 73.925 52.098 77.1526 50.9393 78.7239C50.4905 79.3322 49.7714 79.6395 48.7987 79.6395ZM45.2854 72.5554L46.0485 73.164L46.0336 73.2144C46.0239 73.2478 45.0687 76.5868 46.3174 78.3685C46.7877 79.0393 47.5183 79.4109 48.489 79.473C49.567 79.541 50.3507 79.2587 50.8135 78.631C51.3181 77.9468 51.9052 76.1168 50.1668 71.5497C50.0521 71.2478 49.9424 70.9414 49.8339 70.6381C49.2669 69.0521 48.7312 67.5542 47.6405 67.2893C46.762 67.0762 45.5745 67.6828 44.0107 69.1429L43.9694 69.1815L43.9199 69.1543C43.9125 69.1504 43.1923 68.7618 42.8326 69.0723C42.5799 69.2906 42.4213 69.9346 43.1001 71.7625C43.7711 73.5697 44.2482 73.9269 44.5227 73.9021C44.9282 73.871 45.1923 73.0093 45.26 72.6801L45.2854 72.5554Z" fill="black"/>
<path d="M44.8357 70.7484C44.5139 69.6786 43.9125 69.1504 43.9064 69.1453L44.0083 69.0269C44.0342 69.0492 44.6496 69.5869 44.9852 70.7034L44.8357 70.7484Z" fill="black"/>
<path d="M45.4142 72.7024L45.2585 72.6899C45.3004 72.1657 45.1946 71.9452 45.1935 71.9432L45.3328 71.8721C45.3379 71.8821 45.4603 72.1261 45.4142 72.7024Z" fill="black"/>
<path d="M45.9514 73.1893C45.9613 73.0096 45.9958 72.8395 46.0392 72.6726C46.0811 72.5052 46.1372 72.3434 46.1966 72.1827C46.2605 72.0238 46.3274 71.8662 46.4086 71.7138C46.4883 71.561 46.5767 71.4115 46.6894 71.2715L46.7039 71.2771L46.3422 72.2388L45.9659 73.1949L45.9514 73.1893Z" fill="black"/>
<path d="M45.9552 73.1855C46.058 73.073 46.1724 72.9841 46.2911 72.9038C46.4091 72.8219 46.5338 72.7539 46.66 72.6888C46.7885 72.6281 46.9183 72.5703 47.0549 72.5264C47.1908 72.481 47.3308 72.4438 47.4825 72.4302L47.4894 72.4442L46.7293 72.8289L45.9621 73.1996L45.9552 73.1855Z" fill="black"/>
<path d="M46.6399 77.6943C46.7687 77.8029 46.8945 77.9101 47.0351 77.9969C47.1003 78.0461 47.172 78.0862 47.2395 78.1309C47.31 78.1716 47.3823 78.208 47.4528 78.2466C47.7402 78.39 48.0441 78.496 48.3585 78.5213C48.669 78.5628 48.9904 78.5491 49.3017 78.4667L49.4209 78.4441L49.5363 78.406L49.7691 78.3286C49.9252 78.2755 50.0715 78.1978 50.2332 78.1417L50.2418 78.1548C50.0958 78.2369 49.9543 78.3278 49.8047 78.4028L49.5731 78.5013L49.457 78.5499L49.3356 78.5833L49.0925 78.6491L48.8425 78.6819C48.7595 78.6979 48.6749 78.6911 48.5909 78.6916C48.5067 78.6915 48.4224 78.6929 48.3395 78.6764C48.0052 78.6372 47.681 78.5225 47.3917 78.352C47.1034 78.1802 46.8415 77.9633 46.6274 77.704L46.6399 77.6943Z" fill="white"/>
<path d="M65.4373 32.6464C65.3552 32.2264 64.7216 32.4384 64.803 32.8558C65.1069 34.4134 65.347 36.0078 65.2216 37.5987C65.1046 39.0843 64.2973 40.3148 63.3626 41.432C62.455 42.5166 61.5506 43.5532 60.9613 44.8585C60.4073 46.0855 60.1975 47.5238 60.3581 48.8593C60.5378 50.3536 61.0726 51.7847 61.4592 53.2321C61.8676 54.7615 61.9645 56.2447 61.7118 57.8105C61.5004 59.1204 60.9626 60.3296 59.9167 61.1837C58.8879 62.0239 57.6307 62.3691 56.3284 62.0663C54.8108 61.7134 53.4696 60.7468 52.3572 59.6897C51.7359 59.0992 51.1893 58.4344 50.7156 57.7201C50.2444 57.0093 49.9362 56.2341 49.6205 55.4464C49.4616 55.0498 48.826 55.2554 48.9863 55.6558C49.2732 56.3717 49.548 57.094 49.9478 57.7569C50.3439 58.4138 50.82 59.032 51.3358 59.5992C52.3178 60.6788 53.5285 61.645 54.86 62.256C56.1 62.8249 57.5187 63.0829 58.8252 62.5791C59.9797 62.1339 60.9535 61.302 61.5865 60.2405C62.3377 58.9809 62.5321 57.4025 62.5397 55.9592C62.5483 54.3231 62.0144 52.7674 61.5742 51.2115C61.1205 49.6082 60.793 48.0634 61.1532 46.4036C61.4859 44.8699 62.4055 43.5562 63.4185 42.3923C64.4705 41.1838 65.587 39.81 65.8258 38.1747C66.0945 36.3344 65.79 34.4536 65.4373 32.6464Z" fill="black"/>
<path d="M64.6281 29.4125L64.6795 31.1886L64.172 31.2033L64.1206 29.4272C64.1197 29.3929 64.1467 29.3641 64.1811 29.3632L64.5641 29.3521C64.5984 29.3511 64.627 29.3782 64.6281 29.4125Z" fill="#FFD200"/>
<path d="M64.0963 31.284L64.0423 29.4296C64.0403 29.3523 64.1014 29.2876 64.1786 29.2851L64.5616 29.274C64.634 29.2719 64.7036 29.3332 64.7063 29.4102L64.7601 31.2648L64.0963 31.284ZM64.1991 29.4409L64.2478 31.1232L64.5991 31.1132L64.5505 29.4307L64.1991 29.4409Z" fill="black"/>
<path d="M65.9029 29.3754L65.9543 31.1515L65.4468 31.1662L65.3954 29.3901C65.3945 29.3558 65.4215 29.327 65.4559 29.3261L65.8388 29.315C65.8732 29.3139 65.9018 29.3411 65.9029 29.3754Z" fill="#FFD200"/>
<path d="M65.371 31.247L65.3173 29.3926C65.3162 29.3552 65.3296 29.3195 65.3554 29.2921C65.381 29.2648 65.4159 29.2493 65.4534 29.248L65.8364 29.237C65.9125 29.2335 65.9786 29.2962 65.9811 29.3732V29.3734L66.0348 31.2277L65.371 31.247ZM65.474 29.4038L65.5227 31.0862L65.874 31.0762L65.8253 29.3937L65.474 29.4038Z" fill="black"/>
<path d="M63.5632 30.6939L63.6387 33.2949L66.481 33.2125L66.4056 30.6114L63.5632 30.6939Z" fill="black"/>
<path d="M63.5651 33.378L63.4851 30.6207L66.4838 30.5337L66.5638 33.2909L63.5651 33.378ZM63.6461 30.7725L63.7168 33.2172L66.4028 33.1394L66.3321 30.6946L63.6461 30.7725Z" fill="black"/>
<path d="M60.7499 45.5011C60.7877 46.258 60.208 46.8987 59.4545 46.9363C59.4212 46.9381 59.3878 46.9396 59.3543 46.9381C59.351 46.9382 59.351 46.9382 59.351 46.9382C59.1468 46.9317 58.9537 46.8812 58.779 46.7963C58.6796 46.7477 58.5863 46.6857 58.5024 46.6129C58.2233 46.3794 58.0387 46.031 58.0191 45.6375C58.0017 45.2907 58.1159 44.9674 58.3207 44.7165C58.5532 44.4207 58.9112 44.2257 59.3181 44.2053C60.0716 44.1677 60.7122 44.7474 60.7499 45.5011Z" fill="#FFD200"/>
<path d="M59.3832 47.0167C59.3725 47.0167 59.3614 47.0165 59.3504 47.0159C59.1387 47.0095 58.9355 46.959 58.7448 46.8665C58.6394 46.8149 58.5407 46.7495 58.4511 46.6716C58.1475 46.4179 57.9611 46.0421 57.9411 45.6414C57.9233 45.2872 58.0366 44.9412 58.26 44.667C58.5132 44.3451 58.8976 44.1482 59.314 44.1274C59.6998 44.1079 60.0689 44.2399 60.3549 44.4985C60.6407 44.7571 60.8087 45.1118 60.8279 45.497C60.8677 46.294 60.2533 46.9746 59.4582 47.0143C59.4334 47.0156 59.4084 47.0167 59.3832 47.0167ZM59.387 44.2818C59.3653 44.2818 59.3437 44.2822 59.322 44.2833C58.9505 44.3019 58.608 44.4773 58.3819 44.7646C58.1822 45.0098 58.0813 45.3181 58.097 45.6334C58.1149 45.9907 58.281 46.3258 58.5524 46.5527C58.6329 46.6226 58.7201 46.6804 58.8132 46.7259C58.9838 46.8087 59.1657 46.8538 59.3534 46.8598C59.389 46.8618 59.42 46.8596 59.4504 46.8581C60.1596 46.8224 60.7076 46.2155 60.6719 45.5047C60.6376 44.8176 60.0675 44.2818 59.387 44.2818Z" fill="black"/>
<path d="M65.1591 55.3937C65.197 56.1506 64.6172 56.7913 63.8637 56.8289C63.8304 56.8306 63.797 56.8322 63.7636 56.8306C63.7603 56.8308 63.7603 56.8308 63.7603 56.8308C63.556 56.8242 63.3631 56.7738 63.1882 56.6889C63.0888 56.6403 62.9955 56.5783 62.9116 56.5055C62.6325 56.272 62.448 55.9235 62.4283 55.5301C62.411 55.1833 62.5252 54.86 62.7299 54.6091C62.9624 54.3133 63.3204 54.1182 63.7273 54.0979C64.4808 54.0603 65.1215 54.64 65.1591 55.3937Z" fill="#FFD200"/>
<path d="M63.7923 56.9093C63.7814 56.9093 63.7703 56.9091 63.7593 56.9085C63.5478 56.9023 63.3446 56.8518 63.1538 56.759C63.0486 56.7077 62.9499 56.6422 62.8603 56.5646C62.5564 56.3103 62.37 55.9345 62.35 55.534C62.3323 55.1793 62.4456 54.8335 62.6691 54.5597C62.9221 54.238 63.3066 54.0409 63.7231 54.02C64.1112 54.0003 64.478 54.1327 64.7639 54.3911C65.0497 54.6497 65.2177 55.0044 65.2368 55.3899C65.2562 55.7767 65.1244 56.1472 64.8658 56.4335C64.6074 56.7197 64.2528 56.8879 63.8672 56.9069C63.8426 56.9082 63.8176 56.9093 63.7923 56.9093ZM63.7968 54.1744C63.775 54.1744 63.7531 54.1748 63.731 54.1759C63.3598 54.1947 63.0172 54.3702 62.7911 54.6574C62.5914 54.9022 62.4903 55.2104 62.5061 55.5262C62.5239 55.8831 62.69 56.2183 62.9618 56.4455C63.0422 56.5152 63.1294 56.5732 63.2224 56.6185C63.3931 56.7015 63.5749 56.7466 63.7626 56.7525C63.7982 56.7544 63.8292 56.7524 63.8597 56.7508C64.2034 56.7336 64.5197 56.5838 64.75 56.3286C64.9808 56.0733 65.0982 55.7426 65.081 55.3976V55.3974C65.0638 55.054 64.9141 54.7375 64.6591 54.5071C64.4206 54.2911 64.1165 54.1744 63.7968 54.1744Z" fill="black"/>
<path d="M58.0551 60.7725C58.093 61.5295 57.5132 62.1702 56.7597 62.2078C56.7264 62.2095 56.693 62.2111 56.6596 62.2095C56.6563 62.2097 56.6563 62.2097 56.6563 62.2097C56.452 62.2031 56.2589 62.1527 56.0842 62.0678C55.9848 62.0194 55.8915 61.9572 55.8076 61.8844C55.5285 61.6509 55.344 61.3024 55.3243 60.909C55.307 60.5622 55.4212 60.2389 55.6259 59.988C55.8584 59.6921 56.2164 59.4971 56.6233 59.4768C57.3768 59.4393 58.0175 60.019 58.0551 60.7725Z" fill="#FFD200"/>
<path d="M56.6883 62.2882C56.6774 62.2882 56.6663 62.288 56.6553 62.2874C56.4441 62.2811 56.2409 62.2308 56.0498 62.138C55.9448 62.0866 55.846 62.0213 55.7562 61.9434C55.4524 61.6892 55.266 61.3132 55.246 60.9129C55.2283 60.5582 55.3416 60.2124 55.5651 59.9386C55.8181 59.6169 56.2026 59.4198 56.6191 59.3989C57.0061 59.3793 57.3741 59.5115 57.6599 59.77C57.9457 60.0286 58.1137 60.3833 58.1328 60.7688V60.7687C58.1522 61.1556 58.0204 61.5261 57.7618 61.8123C57.5034 62.0986 57.1488 62.2668 56.7631 62.2858C56.7385 62.2871 56.7135 62.2882 56.6883 62.2882ZM56.6928 59.5533C56.671 59.5533 56.6491 59.5537 56.627 59.5548C56.2558 59.5736 55.9132 59.7491 55.6871 60.0363C55.4874 60.2811 55.3863 60.5893 55.4021 60.9052C55.4199 61.2621 55.586 61.5973 55.8576 61.8245C55.9382 61.8942 56.0256 61.9522 56.1184 61.9975C56.2894 62.0805 56.4711 62.1256 56.6585 62.1314C56.6942 62.133 56.7249 62.1313 56.7555 62.1297C57.0994 62.1125 57.4157 61.9627 57.646 61.7075C57.8768 61.4522 57.9943 61.1215 57.977 60.7765V60.7763C57.9598 60.4329 57.8101 60.1164 57.5551 59.8859C57.3166 59.67 57.0125 59.5533 56.6928 59.5533Z" fill="black"/>
<path d="M55.9231 68.0342C51.3471 67.3704 46.5554 66.5402 41.5697 65.5057C34.4862 64.0312 27.896 62.3281 21.8352 60.515L25.0486 59.3282L16.2768 57.7843C17.6267 57.573 19.5927 57.448 20.7292 57.1105C17.8392 56.4726 14.4852 55.5138 10.869 54.0565C6.57052 52.3257 3.00789 50.3343 0.1922 48.5062C1.69076 48.1238 3.56403 47.4819 5.56091 46.3693C6.74804 45.7083 7.75593 45.0061 8.58865 44.346C6.14064 44.5921 3.68935 44.8383 1.23806 45.0878C3.76045 43.7885 6.5513 42.1748 9.47575 40.1599C9.50154 40.1419 9.53076 40.1237 9.55654 40.1057C9.71155 39.9977 9.86672 39.8896 10.025 39.7815C10.1446 39.6986 10.2608 39.616 10.3802 39.5297C10.6515 39.3391 10.9226 39.145 11.1935 38.9475C14.3318 36.6614 16.9912 34.3555 19.2043 32.2193C17.2203 31.9841 15.2364 31.7491 13.2523 31.5139C15.8547 30.2774 18.6587 28.7934 21.5784 27.0162C22.2305 26.6193 22.8659 26.2232 23.4842 25.8213C23.6656 25.7052 23.8471 25.5892 24.0283 25.4698C24.0349 25.4662 24.038 25.4626 24.0446 25.4591C24.3196 25.2781 24.5948 25.0973 24.8632 24.9167C25.756 24.3171 26.6185 23.7191 27.4447 23.1262C27.5158 23.0759 27.5866 23.0221 27.6577 22.9718C27.8641 22.8212 28.064 22.6741 28.2638 22.5271C28.2993 22.5019 28.3315 22.4769 28.367 22.4518C29.2631 21.7886 30.1194 21.1307 30.9295 20.4852C29.0304 20.2091 27.1345 19.9328 25.2356 19.66C27.9307 18.8066 30.9389 17.6634 34.1238 16.1103C36.1535 15.1198 37.9941 14.0917 39.6482 13.0731C38.2848 12.9473 36.9245 12.8215 35.5611 12.6957C37.4702 12.0989 39.4872 11.3896 41.5843 10.5427C42.3543 10.2335 43.1039 9.91515 43.8335 9.59794L43.8333 9.59466C46.2834 8.51957 48.5203 7.3948 50.537 6.27783C50.4778 6.3644 49.0263 8.48942 48.4448 13.1081C48.1909 15.1164 48.1042 17.5944 48.3636 20.5799C47.6716 19.1771 46.9766 17.7744 46.2814 16.3718C46.6093 18.6552 47.1194 21.2337 47.9234 24.0116C47.9277 24.0314 47.9323 24.0546 47.9399 24.0743C47.9882 24.239 48.0366 24.4037 48.0848 24.5651L48.0849 24.5684C48.0929 24.5948 48.101 24.6243 48.1092 24.6507C48.1974 24.9471 48.2887 25.2334 48.3801 25.523C49.3399 28.5404 50.4264 30.8159 51.509 33.015C50.31 31.5639 49.1416 30.459 47.9424 29.0047C48.3554 31.3841 48.908 33.9438 49.6482 36.6479C50.7109 40.5226 51.9634 43.9766 53.2364 46.9784C51.8279 45.6147 50.4192 44.251 49.0106 42.8875C49.1688 43.9793 49.3669 45.1328 49.611 46.3373C49.7127 46.8336 49.8215 47.3397 49.9409 47.8552C49.9756 48.014 50.0135 48.1726 50.0517 48.3343C50.0563 48.3609 50.0643 48.3871 50.0692 48.417C50.1279 48.6547 50.1867 48.8958 50.249 49.14C50.2493 49.1467 50.2529 49.1499 50.2532 49.1566C50.4043 49.7708 50.5694 50.3976 50.7483 51.0339C51.1183 52.3526 51.5188 53.6094 51.9357 54.7955C51.9477 54.835 51.9629 54.8709 51.9749 54.9105C52.0376 55.0946 52.1001 55.2753 52.1659 55.4525C52.2203 55.6037 52.2745 55.7546 52.3323 55.9055C52.8663 57.3597 53.4216 58.7059 53.9779 59.9382C52.615 58.8866 51.2519 57.8315 49.8921 56.7762C50.3343 58.4022 51.04 60.4161 52.1918 62.5948C53.4135 64.9071 54.7706 66.7111 55.9231 68.0342Z" fill="#006658"/>
<path d="M56.1204 68.1415L55.912 68.1113C51.1314 67.4177 46.3007 66.5668 41.554 65.5817C34.8955 64.1959 28.2537 62.5162 21.8128 60.5896L21.5886 60.5224L24.7503 59.3547L15.8003 57.7792L16.2647 57.7066C16.7229 57.6349 17.2426 57.5742 17.793 57.5098C18.7209 57.4016 19.6766 57.2898 20.4004 57.1165C17.155 56.3827 13.9403 55.378 10.8398 54.1285C7.1176 52.6298 3.52091 50.7601 0.149543 48.5712L0 48.4741L0.172827 48.4301C2.04407 47.9525 3.8439 47.2361 5.52294 46.3005C6.49974 45.7567 7.44231 45.1348 8.32801 44.4502L8.21503 44.4616C5.89391 44.6948 3.56966 44.9282 1.24588 45.1648L0.83538 45.2065L1.20228 45.0176C4.05329 43.5489 6.82211 41.8927 9.43154 40.0949L9.51217 40.0408C9.66734 39.9328 9.82251 39.8245 9.98111 39.7162C10.0999 39.634 10.2157 39.5515 10.3346 39.4656C10.6063 39.2746 10.8771 39.0809 11.1475 38.8835C13.915 36.8677 16.5666 34.6454 19.0312 32.2766L12.974 31.5587L13.2187 31.4426C16.051 30.0969 18.8498 28.5849 21.5378 26.9486C22.251 26.5144 22.8739 26.1239 23.4417 25.7548C23.6233 25.6387 23.8044 25.5229 23.9854 25.4037C23.9949 25.397 23.9997 25.3938 24.0058 25.3901C24.2765 25.2119 24.5515 25.0313 24.8196 24.8508C25.7139 24.2503 26.5817 23.6485 27.3991 23.0619C27.4347 23.0368 27.4697 23.011 27.505 22.9852C27.5406 22.959 27.5766 22.9327 27.6125 22.9072C27.818 22.7574 28.0179 22.6103 28.2177 22.4633L28.322 22.3872C29.1498 21.7745 29.9629 21.1519 30.7397 20.5355L29.9888 20.4264C28.4004 20.1953 26.8137 19.9646 25.2247 19.7364L24.8861 19.6882L25.2119 19.5851C28.253 18.6222 31.2398 17.4293 34.0896 16.0398C35.9104 15.151 37.6983 14.1725 39.4069 13.1289L35.165 12.7374L35.5377 12.6208C37.5682 11.986 39.5925 11.2625 41.5549 10.47C42.2212 10.2025 42.9216 9.90838 43.756 9.54632L43.8019 9.52288C46.0854 8.52076 48.3387 7.40583 50.499 6.20917L50.7878 6.04932L50.6016 6.32168C50.4481 6.54607 49.0858 8.64218 48.5223 13.1177C48.2356 15.3848 48.2084 17.8931 48.4414 20.573L48.4773 20.9871L48.2934 20.6141C47.6744 19.3594 47.0527 18.1045 46.4309 16.8497C46.8003 19.2713 47.3271 21.6709 47.9982 23.9895C48.0038 24.0153 48.0071 24.0317 48.0124 24.0456C48.0629 24.2166 48.1114 24.3811 48.1595 24.5425L48.1835 24.6274C48.2621 24.8908 48.3425 25.1457 48.4236 25.402L48.4542 25.4993C49.396 28.4602 50.4695 30.7275 51.5787 32.9802L51.8735 33.5789L51.4483 33.0644C50.8533 32.3445 50.2556 31.6987 49.6774 31.0741C49.1524 30.5069 48.6114 29.9223 48.0696 29.2796C48.5065 31.7429 49.0625 34.2133 49.723 36.6272C50.6859 40.1378 51.8921 43.61 53.3079 46.9478L53.4583 47.3023L49.1208 43.1034C49.2785 44.1624 49.4687 45.244 49.687 46.3218C49.7988 46.8671 49.9065 47.3631 50.0164 47.8377C50.0448 47.9678 50.0753 48.0969 50.1062 48.2279L50.1271 48.3165C50.13 48.3316 50.1325 48.3421 50.1351 48.3529C50.1389 48.3694 50.1429 48.3866 50.1457 48.4047L50.1828 48.5537C50.2289 48.7406 50.2754 48.9296 50.324 49.1207L50.3253 49.1254C50.3276 49.1318 50.33 49.1414 50.3304 49.1529C50.48 49.7544 50.6464 50.3851 50.8227 51.0125C51.1769 52.2747 51.5759 53.5387 52.0087 54.7692C52.0154 54.791 52.0217 54.8085 52.0281 54.8262C52.0353 54.8464 52.0426 54.8665 52.0489 54.8876C52.1106 55.0686 52.1729 55.2486 52.2382 55.4251C52.2928 55.5764 52.3467 55.727 52.4044 55.8775C52.9095 57.2533 53.4626 58.6084 54.0482 59.906L54.1768 60.191L53.9292 59.9999C52.6284 58.9961 51.3274 57.9893 50.0293 56.9821C50.5697 58.9045 51.3197 60.7793 52.2601 62.5582C53.2877 64.5029 54.5398 66.3281 55.9814 67.9829L56.1204 68.1415ZM22.0821 60.507C28.4485 62.4043 35.0089 64.0599 41.5857 65.4289C46.2607 66.399 51.0172 67.2389 55.7268 67.9263C54.3351 66.3048 53.123 64.5242 52.1225 62.6309C51.1397 60.772 50.3639 58.8092 49.8163 56.7964L49.7549 56.5709L49.9396 56.7143C51.2174 57.706 52.4983 58.6973 53.779 59.6861C53.2388 58.4716 52.7278 57.2104 52.2586 55.9324C52.2011 55.7819 52.1464 55.6303 52.092 55.4787C52.0264 55.3017 51.9637 55.1203 51.9006 54.9354C51.8942 54.9143 51.8879 54.8968 51.8815 54.8792C51.8743 54.859 51.867 54.8389 51.8607 54.8178C51.4279 53.5875 51.0278 52.3204 50.6727 51.0548C50.4958 50.4258 50.329 49.7933 50.177 49.1751C50.1762 49.1725 50.1734 49.1651 50.1718 49.1545C50.1234 48.9646 50.0773 48.7768 50.0313 48.5912L49.9931 48.4358C49.9895 48.4149 49.9864 48.4016 49.9834 48.3886C49.9799 48.3747 49.977 48.3611 49.9746 48.3475L49.9546 48.2638C49.9234 48.1319 49.8926 48.0019 49.8643 47.8717C49.7545 47.3968 49.6462 46.8996 49.5341 46.3529C49.2996 45.195 49.0975 44.0327 48.9331 42.8984L48.9003 42.6719L53.0157 46.6559C51.6612 43.4201 50.5036 40.0624 49.5726 36.6683C48.8849 34.1555 48.3104 31.5815 47.8654 29.0179L47.8149 28.7271L48.0026 28.9547C48.604 29.6842 49.2082 30.3369 49.7924 30.9682C50.2398 31.4517 50.6992 31.9478 51.1605 32.4817C50.1476 30.406 49.1714 28.2694 48.3054 25.5467L48.2747 25.4492C48.1934 25.1921 48.1128 24.9366 48.0342 24.6728L48.0071 24.5781C47.9598 24.4195 47.9123 24.258 47.8649 24.0961C47.8587 24.0808 47.8531 24.0559 47.8484 24.0336C47.13 21.5513 46.5767 18.9775 46.204 16.3828L46.1346 15.8996L46.3515 16.337C46.986 17.617 47.6204 18.8972 48.2523 20.1772C48.0554 17.6399 48.094 15.2604 48.3675 13.0982C48.8444 9.30927 49.8949 7.20347 50.3117 6.49107C48.2431 7.62663 46.0924 8.68672 43.914 9.6446L43.9141 9.64476L43.8649 9.66961C43.0088 10.0417 42.2932 10.3422 41.6136 10.6152C39.7669 11.3608 37.8649 12.0459 35.9548 12.6534L39.8888 13.0166L39.6894 13.1394C37.916 14.2315 36.0552 15.2546 34.1585 16.1803C31.4031 17.524 28.5196 18.6839 25.5833 19.6307C27.0598 19.8432 28.5349 20.0578 30.0113 20.2723L31.1197 20.4334L30.9786 20.5459C30.1577 21.2002 29.295 21.8625 28.4138 22.5145L28.3095 22.5905C28.1104 22.7371 27.9104 22.8841 27.7039 23.0349C27.6678 23.0604 27.6328 23.0861 27.5975 23.1119C27.5617 23.1382 27.526 23.1644 27.49 23.1899C26.6717 23.7771 25.8025 24.3798 24.907 24.9813C24.6384 25.1621 24.3632 25.343 24.0877 25.5242C24.0785 25.5306 24.0735 25.534 24.0668 25.5379C23.8902 25.6546 23.7085 25.7707 23.5267 25.8868C22.9581 26.2566 22.334 26.6478 21.6194 27.0827C19.0042 28.6749 16.2838 30.1494 13.53 31.4681L19.3773 32.1611L19.2589 32.2753C16.7556 34.6921 14.0575 36.958 11.2398 39.0107C10.9687 39.2084 10.6973 39.4028 10.4255 39.5936C10.3066 39.6795 10.1899 39.7625 10.0702 39.8456C9.91142 39.9539 9.75656 40.0619 9.60186 40.1697L9.52092 40.2239C7.01681 41.9491 4.36676 43.5439 1.63794 44.9684C3.82609 44.746 6.01423 44.5261 8.19972 44.3066L8.84665 44.2416L8.63757 44.4072C7.68405 45.1629 6.66178 45.8459 5.59935 46.4374C3.96032 47.3509 2.20658 48.0567 0.384249 48.5373C3.70405 50.6791 7.24058 52.5113 10.8985 53.9839C14.0905 55.2705 17.4037 56.2965 20.7464 57.0342L21.0415 57.0993L20.7518 57.1854C19.9933 57.4106 18.8842 57.5403 17.8117 57.6655C17.4491 57.708 17.0995 57.7486 16.7729 57.7922L25.3473 59.3014L22.0821 60.507Z" fill="black"/>
<path d="M38.7484 20.7882C38.6722 20.7882 38.6025 20.7732 38.5419 20.7399C38.1114 20.5038 38.2393 19.6777 38.3514 19.2134C38.0226 19.5339 37.3929 20.0293 36.9072 19.6977C36.8097 19.6309 36.7523 19.5333 36.7366 19.4073C36.6547 18.7434 37.8318 17.4076 37.882 17.3511L37.9989 17.4548C37.6702 17.8253 36.8306 18.8951 36.8917 19.3883C36.9016 19.4689 36.9355 19.528 36.9953 19.5686C37.5524 19.9497 38.4422 18.8896 38.4511 18.8789L38.7092 18.5677L38.5855 18.9528C38.4614 19.339 38.2251 20.3882 38.6167 20.6031C39.0132 20.8206 40.1192 19.8767 40.512 19.4945L40.6209 19.6066C40.4845 19.7394 39.3865 20.7882 38.7484 20.7882Z" fill="black"/>
<path d="M42.8171 31.2953C42.77 31.2953 42.725 31.2881 42.6827 31.2725C42.2217 31.1034 42.2245 30.2674 42.2659 29.7914C41.989 30.1574 41.4402 30.741 40.9105 30.4862C40.8039 30.4349 40.7325 30.3469 40.6984 30.2247C40.518 29.5806 41.4821 28.0835 41.523 28.02L41.6543 28.1052C41.3848 28.5207 40.7147 29.7041 40.8489 30.1827C40.871 30.2608 40.9132 30.3141 40.9783 30.3455C41.5874 30.638 42.3073 29.4575 42.3147 29.4456L42.5233 29.0998L42.4586 29.4984C42.3937 29.8988 42.3172 30.972 42.7364 31.1256C43.1635 31.2822 44.1133 30.1825 44.4445 29.7459L44.5691 29.8403C44.4489 29.9986 43.4466 31.2953 42.8171 31.2953Z" fill="black"/>
<path d="M41.6301 51.5207C41.6287 51.5207 41.6273 51.5207 41.626 51.5207C41.135 51.5149 40.8592 50.7258 40.7395 50.2634C40.6003 50.7008 40.2793 51.4342 39.6932 51.3702C39.5757 51.3574 39.4793 51.2982 39.4061 51.1944C39.0213 50.6474 39.4313 48.9143 39.4488 48.8408L39.6008 48.8772C39.4854 49.359 39.248 50.6982 39.534 51.1046C39.5807 51.171 39.6384 51.207 39.7102 51.2149C40.377 51.2915 40.6675 49.935 40.6702 49.9212L40.7516 49.5251L40.8236 49.9231C40.8958 50.3223 41.1811 51.3593 41.6279 51.3646C41.6288 51.3646 41.6298 51.3646 41.6305 51.3646C42.0826 51.3646 42.6122 50.0154 42.7784 49.4945L42.9274 49.5421C42.8625 49.7448 42.2772 51.5207 41.6301 51.5207Z" fill="black"/>
<path d="M16.9679 42.0845C16.9172 42.0845 16.8689 42.0762 16.8237 42.0587C16.3666 41.8797 16.3876 41.044 16.4392 40.5691C16.1546 40.9288 15.5935 41.5012 15.0692 41.2343C14.9639 41.1807 14.8945 41.0913 14.8629 40.9683C14.6964 40.3205 15.6928 38.8447 15.7353 38.7822L15.8644 38.87C15.5861 39.2796 14.8906 40.4483 15.0142 40.9296C15.0345 41.0082 15.0758 41.0624 15.1401 41.0951C15.7424 41.4006 16.4881 40.2361 16.4956 40.2244L16.7117 39.8834L16.6384 40.2803C16.5648 40.6793 16.4651 41.7503 16.8811 41.9131C17.3014 42.0787 18.2781 41.0001 18.6185 40.5708L18.7409 40.6678C18.6181 40.8227 17.5982 42.0845 16.9679 42.0845Z" fill="black"/>
<path d="M26.5645 58.1159C26.5139 58.1159 26.4656 58.1077 26.4204 58.0901C25.9632 57.9109 25.9843 57.0754 26.0359 56.6007C25.7513 56.9605 25.19 57.5328 24.6658 57.2657C24.5603 57.2121 24.4909 57.1227 24.4593 56.9997C24.2929 56.3519 25.2892 54.876 25.3318 54.8135L25.4608 54.9013C25.1825 55.3109 24.487 56.4795 24.6108 56.9608C24.6309 57.0396 24.6722 57.0938 24.7367 57.1266C25.3389 57.4323 26.0848 56.2677 26.0921 56.2559L26.3084 55.9148L26.2349 56.3119C26.1614 56.7108 26.0615 57.7817 26.4776 57.9447C26.8963 58.1097 27.8745 57.0315 28.2151 56.6022L28.3375 56.6993C28.2148 56.854 27.1946 58.1159 26.5645 58.1159Z" fill="black"/>
<path d="M45.4365 62.5611C45.4345 62.5611 45.4327 62.5611 45.4307 62.5611C44.9396 62.553 44.6675 61.7625 44.5502 61.2995C44.4089 61.7359 44.0795 62.4668 43.4985 62.4013C43.381 62.3878 43.2848 62.3281 43.2123 62.2239C42.83 61.6748 43.2487 59.944 43.2666 59.8706L43.4184 59.9078C43.3004 60.3889 43.0566 61.7268 43.3405 62.1345C43.387 62.2013 43.4445 62.2375 43.5163 62.2458C44.1884 62.3219 44.4797 60.9702 44.4827 60.9566L44.5661 60.5618L44.636 60.9593C44.7063 61.359 44.9866 62.3975 45.4334 62.4049C45.4348 62.4049 45.436 62.4049 45.4371 62.4049C45.8889 62.4049 46.4242 61.0602 46.593 60.5403L46.7416 60.5886C46.6757 60.791 46.0825 62.561 45.4365 62.5611Z" fill="black"/>
<path d="M52.9558 5.30176L54.5285 0.709047L50.6265 3.54318L46.664 0.413086L48.685 5.01502L43.9522 7.80118L48.1977 7.52272C46.8281 8.22324 45.3728 8.91845 43.8333 9.59413L43.8335 9.59741C44.1805 10.1884 44.7299 10.9466 45.5733 11.6365C46.6226 12.5 47.6993 12.9075 48.4448 13.1075C48.7131 10.9761 49.1662 9.38193 49.5828 8.26793L50.1409 12.6631L51.8465 7.71289L56.6773 8.27997L52.9558 5.30176Z" fill="#FFD200"/>
<path d="M48.5111 13.2062L48.4243 13.183C47.346 12.8934 46.3701 12.3934 45.5235 11.6967C44.8237 11.1245 44.2323 10.4313 43.7658 9.63689L43.7561 9.62033L43.7529 9.54735L43.8016 9.52251C45.1536 8.92918 46.5046 8.29179 47.8226 7.62548L43.6288 7.9005L48.5853 4.98277L46.4664 0.157227L50.6284 3.44499L54.6825 0.500535L53.0475 5.27498L56.9389 8.38945L51.8998 7.798L50.1057 13.0056L49.5461 8.59853C49.0758 9.93582 48.7317 11.4541 48.5223 13.1175L48.5111 13.2062ZM43.9441 9.6308C44.3943 10.3787 44.9586 11.0329 45.6227 11.5761C46.4293 12.2398 47.3561 12.7214 48.3787 13.0084C48.6068 11.2412 48.9873 9.63767 49.5096 8.24053L49.6205 7.9441L50.1762 12.321L51.793 7.62798L56.4156 8.17068L52.8641 5.32858L54.3745 0.9176L50.6245 3.64126L46.8617 0.66883L48.7847 5.04746L44.2752 7.70174L48.5701 7.42015L48.2332 7.59251C46.8312 8.30929 45.3886 8.99481 43.9441 9.6308Z" fill="black"/>
<path d="M48.109 24.6503C47.3252 24.8867 46.5297 25.0869 45.7285 25.2439C45.2854 25.3397 44.8414 25.4186 44.3934 25.4846C44.274 25.504 44.1545 25.5199 44.0349 25.536C40.9439 25.9579 37.7582 25.756 34.7023 25.1433C33.2503 24.8516 31.781 24.5472 30.3682 24.1031C29.431 23.809 28.5292 23.4229 27.6575 22.9716C27.864 22.8209 28.0638 22.6739 28.2637 22.5269C29.1923 22.9819 30.154 23.3618 31.1608 23.6423C32.0523 23.8885 32.9492 24.111 33.8549 24.3065C34.2907 24.3984 34.7229 24.4837 35.1613 24.5587C35.1645 24.5586 35.1645 24.5586 35.1645 24.5586C36.7905 24.8517 38.431 25.0372 40.0777 25.0785C42.7453 25.1457 45.3771 24.7634 47.9234 24.011C47.9277 24.0309 47.9323 24.054 47.9399 24.0737C47.9882 24.2384 48.0367 24.4031 48.0848 24.5645L48.0849 24.5678C48.0929 24.5942 48.101 24.6239 48.109 24.6503Z" fill="black"/>
<path d="M36.0993 23.1935C36.137 23.948 35.556 24.5901 34.8015 24.6279C34.0471 24.6655 33.405 24.0845 33.3672 23.3301C33.3296 22.5757 33.9105 21.9336 34.665 21.8958C35.4196 21.8581 36.0616 22.4391 36.0993 23.1935Z" fill="#FFD200"/>
<path d="M34.7314 24.7076C34.3726 24.7076 34.0315 24.5764 33.7633 24.3338C33.477 24.0747 33.3087 23.7194 33.2895 23.3339C33.2701 22.9481 33.4022 22.5779 33.6613 22.2916C33.9204 22.0052 34.2757 21.8369 34.6612 21.8177C35.4533 21.7785 36.1377 22.3932 36.1774 23.1894C36.2173 23.9857 35.6017 24.6659 34.8056 24.7056C34.7806 24.707 34.7559 24.7076 34.7314 24.7076ZM34.734 21.9721C34.7125 21.9721 34.6907 21.9726 34.669 21.9736C34.3249 21.9908 34.0082 22.141 33.7771 22.3965C33.546 22.652 33.4281 22.982 33.4453 23.3259C33.4625 23.67 33.6127 23.9869 33.8682 24.2179C34.1235 24.4492 34.4524 24.5662 34.7975 24.5496C35.5078 24.5142 36.0568 23.9075 36.0213 23.1973C35.9869 22.5088 35.4159 21.9721 34.734 21.9721Z" fill="black"/>
<path d="M46.6345 26.4641C46.6722 27.2185 46.0912 27.8606 45.3368 27.8984C44.5823 27.9361 43.9402 27.3551 43.9024 26.6006C43.8648 25.8462 44.4458 25.2041 45.2002 25.1663C45.9548 25.1285 46.5969 25.7096 46.6345 26.4641Z" fill="#FFD200"/>
<path d="M45.2677 27.9783C44.5034 27.9783 43.8632 27.3763 43.8246 26.6046C43.7847 25.8084 44.4003 25.1282 45.1964 25.0884C45.9904 25.0474 46.6728 25.6639 46.7126 26.4602C46.7525 27.2565 46.137 27.9367 45.3408 27.9764C45.3163 27.9778 45.2919 27.9783 45.2677 27.9783ZM45.2692 25.2429C45.2477 25.2429 45.2259 25.2434 45.2042 25.2445C44.4939 25.2802 43.9449 25.8867 43.9804 26.5968C44.0162 27.307 44.6271 27.8564 45.3327 27.8206C46.043 27.785 46.592 27.1785 46.5565 26.4683C46.5221 25.7797 45.9512 25.2429 45.2692 25.2429Z" fill="black"/>
<path d="M52.1654 55.4517C49.1489 55.5591 46.1245 55.5764 43.1114 55.4161C40.2021 55.2606 37.3067 54.9173 34.4615 54.304C34.0425 54.2146 33.6231 54.1185 33.2036 54.0158C33.1664 54.0077 33.1326 53.9992 33.0953 53.9878C29.9541 53.2054 26.9315 52.0563 23.9986 50.6918C21.0348 49.3123 18.1689 47.617 15.5133 45.7139C15.2878 45.5514 15.0657 45.3886 14.8435 45.2226C14.5622 45.0127 14.2875 44.7991 14.0125 44.5822C14.0092 44.5824 14.0092 44.5824 14.0091 44.5791C13.2326 43.9594 12.4883 43.3114 11.7751 42.6216C10.9704 41.8361 10.22 41.0012 9.47589 40.1592C9.50167 40.1413 9.5309 40.123 9.55668 40.105C9.71169 39.997 9.86686 39.8889 10.0252 39.7808C10.8574 40.7152 11.6995 41.6459 12.6144 42.4961C13.9533 43.7362 15.3968 44.8609 16.9118 45.8783C18.7243 47.0948 20.6057 48.2208 22.5479 49.2236L22.5513 49.2267C22.7541 49.3368 22.9598 49.4403 23.1656 49.5436C26.7867 51.365 30.6113 52.7816 34.5723 53.6467C38.0093 54.3943 41.5097 54.7374 45.0247 54.8392L45.028 54.839C45.6174 54.8596 46.2029 54.8706 46.7914 54.8746C46.7948 54.8778 46.7947 54.8745 46.7947 54.8745C48.5103 54.889 50.2235 54.8568 51.9352 54.7948C51.9473 54.8343 51.9624 54.8703 51.9745 54.9098C52.0373 55.0939 52.0998 55.2745 52.1654 55.4517Z" fill="black"/>
<path d="M24.8331 48.1398C24.8707 48.8943 24.2897 49.5364 23.5353 49.5742C22.7809 49.6118 22.1388 49.0308 22.101 48.2764C22.0633 47.522 22.6443 46.8799 23.3987 46.8421C24.1532 46.8043 24.7954 47.3854 24.8331 48.1398Z" fill="#FFD200"/>
<path d="M23.4661 49.6539C22.7018 49.6539 22.0616 49.052 22.023 48.2802C22.0036 47.8944 22.1358 47.5244 22.3949 47.2379C22.654 46.9515 23.0093 46.7832 23.3948 46.764C24.1869 46.7246 24.8713 47.3397 24.911 48.1358C24.9509 48.9321 24.3354 49.6123 23.5392 49.652C23.5148 49.6533 23.4903 49.6539 23.4661 49.6539ZM23.4678 46.9185C23.4462 46.9185 23.4245 46.919 23.4028 46.9201C23.0587 46.9373 22.7418 47.0875 22.5108 47.3429C22.2797 47.5984 22.1619 47.9285 22.1789 48.2724C22.2147 48.9828 22.8237 49.5331 23.5312 49.4962C24.2416 49.4606 24.7905 48.8542 24.7551 48.144C24.7205 47.4553 24.1496 46.9185 23.4678 46.9185Z" fill="black"/>
<path d="M34.8817 55.2219C34.9194 55.9763 34.3384 56.6184 33.584 56.6562C32.8295 56.6939 32.1874 56.1129 32.1496 55.3584C32.112 54.604 32.6929 53.9619 33.4474 53.9241C34.2018 53.8863 34.8439 54.4674 34.8817 55.2219Z" fill="#FFD200"/>
<path d="M33.5149 56.7361C32.7503 56.7361 32.1102 56.1341 32.0718 55.3625C32.0319 54.5662 32.6474 53.886 33.4434 53.8463C34.2379 53.8038 34.92 54.4218 34.9597 55.218C34.9995 56.0143 34.384 56.6945 33.588 56.7342C33.5635 56.7354 33.5391 56.7361 33.5149 56.7361ZM33.5163 54.0007C33.4947 54.0007 33.473 54.0012 33.4513 54.0023C32.741 54.0379 32.1921 54.6443 32.2276 55.3546C32.2632 56.0646 32.8703 56.612 33.5799 56.5782C34.2901 56.5426 34.839 55.9362 34.8036 55.2259C34.7692 54.5375 34.1982 54.0007 33.5163 54.0007Z" fill="black"/>
<path d="M47.2969 53.7463C47.3345 54.5007 46.7536 55.1428 45.9991 55.1806C45.2447 55.2183 44.6026 54.6373 44.5648 53.8828C44.5271 53.1284 45.1081 52.4863 45.8625 52.4485C46.617 52.4109 47.2591 52.9918 47.2969 53.7463Z" fill="#FFD200"/>
<path d="M45.9291 55.2603C45.5702 55.2603 45.2289 55.129 44.9608 54.8865C44.6743 54.6274 44.506 54.2722 44.4868 53.8867C44.447 53.0904 45.0625 52.4102 45.8586 52.3705C46.6501 52.3304 47.3352 52.946 47.3749 53.7422C47.4147 54.5385 46.7992 55.2187 46.003 55.2584C45.9782 55.2596 45.9535 55.2603 45.9291 55.2603ZM45.9316 52.5249C45.9101 52.5249 45.8883 52.5254 45.8666 52.5265C45.1562 52.5619 44.6073 53.1685 44.6428 53.8788C44.66 54.2227 44.8101 54.5394 45.0656 54.7707C45.3209 55.0017 45.6493 55.1187 45.9951 55.1024C46.7054 55.0668 47.2544 54.4604 47.2189 53.7501C47.1844 53.0618 46.6134 52.5249 45.9316 52.5249Z" fill="black"/>
<path d="M15.0233 45.8356C15.0609 46.5901 14.4799 47.2322 13.7255 47.27C12.9711 47.3076 12.329 46.7266 12.2912 45.9722C12.2535 45.2178 12.8345 44.5757 13.5889 44.5379C14.3434 44.5001 14.9856 45.0812 15.0233 45.8356Z" fill="#FFD200"/>
<path d="M13.6564 47.3498C12.8918 47.35 12.2518 46.7479 12.2133 45.9763C12.1735 45.18 12.789 44.4998 13.585 44.4601C14.3793 44.4177 15.0614 45.0356 15.1012 45.8317C15.1206 46.2175 14.9885 46.5877 14.7295 46.874C14.4704 47.1604 14.115 47.3287 13.7295 47.348C13.705 47.3492 13.6806 47.3498 13.6564 47.3498ZM13.6578 44.6144C13.6362 44.6144 13.6145 44.6149 13.5928 44.616C12.8826 44.6516 12.3336 45.2581 12.3691 45.9683C12.4047 46.6785 13.0123 47.2293 13.7214 47.192C14.0655 47.1748 14.3822 47.0246 14.6134 46.7692C14.8446 46.5137 14.9623 46.1836 14.9451 45.8397C14.9107 45.1514 14.3397 44.6144 13.6578 44.6144Z" fill="black"/>
<path d="M50.069 48.4164C50.1277 48.6541 50.1865 48.8952 50.2488 49.1395C48.7947 48.6038 47.4013 47.9447 46.0408 47.2104C44.6804 46.4761 43.3508 45.6901 42.0583 44.8455C41.4781 44.4733 40.9073 44.0873 40.3457 43.6876C37.6367 41.7873 35.1059 39.6406 32.797 37.2523C29.3776 33.7159 26.4061 29.7729 23.4842 25.8207C23.6656 25.7046 23.847 25.5887 24.0283 25.4693C24.0349 25.4657 24.038 25.4621 24.0445 25.4585C25.4928 27.4152 26.9507 29.3647 28.4796 31.2605C30.2147 33.4068 31.9889 35.5277 33.9513 37.4721C35.8575 39.3624 37.9178 41.1248 40.083 42.7114C42.3179 44.3547 44.7264 45.7922 47.19 47.0629C48.0408 47.4984 48.9092 47.8862 49.7924 48.2331C49.8777 48.2689 49.9663 48.3013 50.0515 48.3339C50.2491 48.411 50.4434 48.4849 50.6411 48.5585C50.4367 48.5518 50.2437 48.5013 50.069 48.4164Z" fill="black"/>
<path d="M42.0665 44.9406C42.1041 45.695 41.5231 46.3371 40.7687 46.3749C40.0143 46.4126 39.3722 45.8316 39.3344 45.0772C39.2967 44.3227 39.8777 43.6807 40.6321 43.6428C41.3866 43.6052 42.0288 44.1862 42.0665 44.9406Z" fill="#FFD200"/>
<path d="M40.6987 46.4546C40.3398 46.4546 39.9983 46.3235 39.7304 46.0808C39.4439 45.8218 39.2756 45.4666 39.2564 45.0809C39.2166 44.2846 39.8321 43.6044 40.6282 43.5647C41.0165 43.5463 41.3842 43.6775 41.6705 43.9366C41.9569 44.1957 42.1252 44.5509 42.1445 44.9364C42.1843 45.7327 41.5688 46.4129 40.7726 46.4526C40.7479 46.454 40.7232 46.4546 40.6987 46.4546ZM40.702 43.7192C40.6801 43.7192 40.6582 43.7197 40.6362 43.7208C39.9258 43.7564 39.3769 44.3629 39.4124 45.0731C39.4295 45.4172 39.5797 45.7339 39.8352 45.965C40.0907 46.196 40.4207 46.3126 40.7647 46.2968C41.475 46.2613 42.024 45.6547 41.9885 44.9445C41.9713 44.6004 41.8211 44.2838 41.5657 44.0525C41.3266 43.8363 41.0222 43.7192 40.702 43.7192Z" fill="black"/>
<path d="M52.0399 47.1212C52.0778 47.8781 51.498 48.5188 50.7445 48.5565C50.7112 48.5582 50.6778 48.5597 50.6444 48.5582C50.6411 48.5583 50.6411 48.5583 50.6411 48.5583C50.4368 48.5518 50.2437 48.5013 50.069 48.4164C49.9696 48.3678 49.8763 48.3058 49.7924 48.233C49.5133 47.9995 49.3288 47.6511 49.3091 47.2576C49.2918 46.9109 49.406 46.5875 49.6107 46.3366C49.8432 46.0408 50.2012 45.8458 50.6081 45.8255C51.3616 45.7879 52.0023 46.3677 52.0399 47.1212Z" fill="#FFD200"/>
<path d="M50.6732 48.6368C50.6623 48.6368 50.6512 48.6366 50.6403 48.636C50.4287 48.6297 50.2256 48.5794 50.0346 48.4868C49.9291 48.435 49.8305 48.3696 49.7411 48.2921C49.4374 48.038 49.2509 47.662 49.2309 47.2615C49.2131 46.9071 49.3264 46.5613 49.5499 46.2872C49.8029 45.9655 50.1874 45.7684 50.6039 45.7475C51.4019 45.7072 52.0782 46.3222 52.1179 47.1173C52.1373 47.5042 52.0055 47.8748 51.7469 48.161C51.4885 48.4472 51.1338 48.6154 50.7481 48.6344C50.7234 48.6357 50.6982 48.6368 50.6732 48.6368ZM50.6767 45.9019C50.6551 45.9019 50.6337 45.9023 50.6118 45.9034C50.2406 45.9222 49.898 46.0977 49.6719 46.3849C49.4722 46.6299 49.3713 46.9382 49.3871 47.2537C49.4049 47.6109 49.571 47.9461 49.8426 48.1731C49.9229 48.2428 50.0101 48.3006 50.1032 48.3463C50.274 48.4291 50.4557 48.4743 50.6434 48.4802C50.6793 48.4821 50.71 48.48 50.7404 48.4785C51.0842 48.4613 51.4006 48.3114 51.631 48.0563C51.8618 47.8009 51.9791 47.4703 51.9619 47.1252C51.9276 46.4377 51.3574 45.9019 50.6767 45.9019Z" fill="black"/>
<path d="M31.0687 44.7142C31.0598 44.7162 31.0525 44.7156 31.0436 44.7176C28.3049 44.9663 25.608 43.7788 23.7352 41.8038C23.0675 41.1005 22.4163 40.2048 21.9594 39.2308C21.2425 37.716 21.0029 36.0127 21.9302 34.5621C22.7932 33.2208 24.0663 33.4747 25.2712 34.2066C26.3338 34.8537 27.3466 35.8755 27.9688 36.5045C28.5117 37.0458 29.0848 37.5447 29.7663 37.9005C30.8629 38.4807 32.1238 38.5703 33.2348 39.0905C33.4542 39.1928 33.6944 39.3233 33.9329 39.4874C34.6248 39.9493 35.316 40.6212 35.5082 41.3382C36.072 43.485 32.6082 44.5717 31.0687 44.7142Z" fill="black"/>
<path d="M30.3329 44.8269C27.9093 44.8269 25.4705 43.7476 23.6783 41.8576C22.9478 41.0881 22.3123 40.1671 21.8885 39.2639C21.2953 38.0107 20.8095 36.1701 21.8643 34.5201C22.6239 33.3394 23.7839 33.212 25.3117 34.1399C26.3879 34.7953 27.4122 35.8308 28.0241 36.4496C28.4684 36.8925 29.0722 37.45 29.8024 37.8313C30.3782 38.136 31.0136 38.3074 31.6283 38.4731C32.1756 38.6206 32.7415 38.7733 33.2678 39.0197C33.521 39.1378 33.7594 39.2735 33.977 39.423C34.3785 39.6911 35.341 40.4139 35.5835 41.318C35.7255 41.8591 35.6312 42.371 35.3027 42.8403C34.4529 44.054 32.2653 44.6804 31.0813 44.7912L31.0627 44.7937C30.8201 44.8158 30.5764 44.8269 30.3329 44.8269ZM31.0364 44.64L31.0623 44.7153L31.0525 44.6379L31.0616 44.6364C32.3017 44.5217 34.3978 43.8607 35.1747 42.7508C35.4755 42.321 35.5622 41.8526 35.4324 41.3583C35.2038 40.5057 34.277 39.8115 33.8893 39.5525C33.678 39.4072 33.4471 39.276 33.2017 39.1614C32.6876 38.9208 32.1284 38.7698 31.5875 38.6242C30.9647 38.4562 30.3207 38.2824 29.7297 37.9698C28.9812 37.5788 28.3657 37.0109 27.9135 36.5601C27.3061 35.946 26.2902 34.9189 25.2305 34.2735C23.7688 33.3856 22.7107 33.4936 21.9958 34.6045C20.9797 36.1941 21.4535 37.9796 22.0301 39.1975C22.4468 40.086 23.0725 40.9923 23.7918 41.7501C25.7315 43.7955 28.4387 44.8752 31.0364 44.64Z" fill="black"/>
<path d="M31.0687 44.7143C31.0598 44.7163 31.0525 44.7157 31.0436 44.7177C28.3049 44.9663 25.608 43.7789 23.7352 41.8039C23.0675 41.1006 22.4163 40.2049 21.9594 39.2309C23.6381 38.5089 25.8494 38.6704 27.7894 39.8376C29.7394 41.0074 30.9226 42.8855 31.0687 44.7143Z" fill="#FF2A2A"/>
<path d="M30.3329 44.8267C27.9093 44.8267 25.4705 43.7474 23.6783 41.8574C22.9478 41.088 22.3123 40.167 21.8885 39.2638L21.8542 39.1908L21.9285 39.1589C23.6853 38.4034 25.9469 38.6378 27.8296 39.7704C29.723 40.9062 30.994 42.7981 31.1466 44.7078L31.1519 44.7747L31.0628 44.7937C30.8203 44.8156 30.5764 44.8267 30.3329 44.8267ZM22.065 39.2709C22.4813 40.1355 23.0922 41.013 23.7917 41.7497C25.7183 43.7816 28.4026 44.8612 30.984 44.6442C30.8082 42.8098 29.5747 40.9995 27.7491 39.9043C25.9352 38.8129 23.7658 38.5735 22.065 39.2709Z" fill="black"/>
<path d="M31.5418 27.1513L31.0883 27.9922L34.8509 30.0214L35.3044 29.1805L31.5418 27.1513Z" fill="black"/>
<path d="M34.8802 30.1279L30.9802 28.0246L31.5079 27.0459L35.4079 29.1492L34.8802 30.1279ZM31.1919 27.9611L34.8166 29.9161L35.196 29.2128L31.5713 27.2578L31.1919 27.9611Z" fill="black"/>
<path d="M49.2807 36.7193C46.6305 41.6334 41.4674 44.015 37.6277 42.1481C37.5494 42.1092 37.4713 42.0702 37.3944 42.0287C37.1445 41.894 36.9084 41.744 36.6825 41.5801L36.6803 41.579C36.5679 41.4957 36.4614 41.4124 36.3553 41.3229C35.8121 40.8682 35.3477 40.3235 34.9727 39.7103C33.2952 36.9779 33.3094 32.8774 35.3028 29.1812L49.2807 36.7193Z" fill="black"/>
<path d="M40.4731 42.8697C39.4769 42.8697 38.5018 42.6597 37.5935 42.2181C37.5069 42.175 37.4314 42.1372 37.3571 42.0972C37.1124 41.9651 36.8697 41.8125 36.6364 41.6432C36.514 41.5529 36.4065 41.4682 36.305 41.3824C35.7599 40.9263 35.2891 40.3772 34.9059 39.7509C33.1622 36.9105 33.291 32.7471 35.2341 29.144L35.2711 29.0752L49.3865 36.6875L49.3494 36.7563C47.2927 40.5697 43.7699 42.8697 40.4731 42.8697ZM35.3347 29.2868C33.4528 32.8258 33.335 36.8933 35.0391 39.669C35.4135 40.2809 35.8732 40.8172 36.4054 41.2626C36.5047 41.3463 36.6098 41.429 36.7267 41.5159C36.9559 41.6817 37.1924 41.8307 37.4314 41.9595C37.5043 41.9989 37.5782 42.0358 37.6524 42.0728C39.4999 42.9715 41.7038 42.9104 43.8671 41.9056C46.0206 40.9054 47.9028 39.0765 49.1744 36.7507L35.3347 29.2868Z" fill="black"/>
<path d="M43.9671 33.8533C41.4988 36.4265 38.9306 38.8781 36.3553 41.3223C35.8121 40.8676 35.3477 40.3229 34.9727 39.7097C37.3144 37.3917 39.7401 35.1739 42.0493 32.8188L43.9671 33.8533Z" fill="white"/>
<path d="M36.3585 41.4273L36.3051 41.3826C35.7599 40.9261 35.2891 40.3772 34.9059 39.7507L34.8737 39.6979L34.9176 39.6545C35.9033 38.6789 36.9201 37.7052 37.9035 36.7636C39.2569 35.4679 40.6564 34.1281 41.9933 32.7647L42.0346 32.7227L44.0946 33.8334L44.0235 33.9074C41.5996 36.4344 39.1409 38.7864 36.4092 41.3793L36.3585 41.4273ZM35.0719 39.7217C35.4274 40.2914 35.8577 40.7941 36.3523 41.2177C39.0358 38.6705 41.456 36.354 43.8396 33.8734L42.064 32.9158C40.7378 34.2665 39.3522 35.593 38.0118 36.8764C37.0434 37.8034 36.0426 38.7616 35.0719 39.7217Z" fill="black"/>
<path d="M45.2292 34.5336C42.7401 37.1248 40.1463 39.5883 37.6277 42.1474C37.5494 42.1085 37.4712 42.0694 37.3944 42.028C37.1445 41.8933 36.9084 41.7433 36.6824 41.5794C38.7162 39.6484 40.7506 37.7112 42.7301 35.7123C43.2716 35.1632 43.8088 34.6119 44.3409 34.0547L45.2292 34.5336Z" fill="white"/>
<path d="M37.6436 42.2429L37.5928 42.2176C37.507 42.1748 37.4316 42.1369 37.3572 42.0968C37.1125 41.9647 36.8698 41.8121 36.6365 41.6428L36.5605 41.5878L36.6287 41.5231C38.8026 39.4591 40.7581 37.5933 42.6748 35.6577C43.2661 35.0581 43.7925 34.516 44.2846 34.001L44.3257 33.958L45.3572 34.5143L45.2859 34.5885C43.8505 36.0827 42.356 37.5586 40.9107 38.9859C39.8486 40.0347 38.7503 41.1191 37.6838 42.2029L37.6436 42.2429ZM36.8048 41.5711C37.0087 41.7146 37.219 41.845 37.4314 41.9593C37.4909 41.9915 37.5513 42.0219 37.6117 42.0524C38.6667 40.9812 39.7511 39.9104 40.8004 38.8742C42.2213 37.4711 43.6894 36.0213 45.1015 34.5538L44.3562 34.1518C43.8755 34.6546 43.3612 35.1837 42.7857 35.7672C40.8875 37.6841 38.9521 39.5322 36.8048 41.5711Z" fill="black"/>
<path d="M31.5399 27.1515C28.8356 32.166 23.5149 34.5434 19.6537 32.461C19.5341 32.3965 19.4193 32.3282 19.306 32.2573C18.9964 32.0644 18.7103 31.8486 18.4454 31.6088C18.3407 31.5167 18.2409 31.4208 18.1457 31.3209C17.6477 30.8131 17.235 30.2185 16.9097 29.5642C15.5654 26.8531 15.7038 23.0589 17.5621 19.6133L31.5399 27.1515Z" fill="black"/>
<path d="M22.6959 33.2905C21.6205 33.2905 20.5735 33.0462 19.6164 32.5301C19.5069 32.4709 19.395 32.4054 19.2644 32.3238C18.9533 32.1301 18.6601 31.909 18.3927 31.6671C18.2877 31.5746 18.1852 31.4761 18.089 31.3752C17.5963 30.8725 17.1755 30.2748 16.8398 29.5996C15.436 26.7679 15.6863 22.9275 17.4933 19.5766L17.5303 19.5078L31.6458 27.1201L31.6088 27.1889C29.5572 30.9925 25.9935 33.2905 22.6959 33.2905ZM17.5939 19.7194C15.8443 23.01 15.6075 26.7623 16.9797 29.5299C17.3081 30.1904 17.7191 30.7747 18.2013 31.2664C18.2952 31.3649 18.3942 31.46 18.4968 31.55C18.7581 31.7868 19.0439 32.0021 19.347 32.191C19.4747 32.2709 19.5839 32.3348 19.6905 32.3923C23.4893 34.441 28.7428 32.1043 31.4336 27.1831L17.5939 19.7194Z" fill="black"/>
<path d="M25.6391 23.9694C23.2092 26.5019 20.6825 28.9174 18.1457 31.321C17.6477 30.8132 17.235 30.2186 16.9097 29.5643C19.1698 27.3413 21.4986 25.2009 23.7213 22.9351L25.6391 23.9694Z" fill="white"/>
<path d="M18.1437 31.4305L18.0898 31.3755C17.5963 30.872 17.1755 30.2743 16.8398 29.5991L16.8145 29.5483L16.855 29.5086C17.7479 28.6306 18.6662 27.751 19.5543 26.9004C20.9147 25.5977 22.3214 24.2505 23.6655 22.8803L23.7068 22.8384L25.7666 23.9492L25.6955 24.0233C23.2417 26.5807 20.6469 29.0589 18.1995 31.3777L18.1437 31.4305ZM17.005 29.5802C17.3169 30.1957 17.701 30.7437 18.1477 31.2111C20.5539 28.9311 23.0995 26.4987 25.5113 23.9893L23.7358 23.0315C22.4025 24.3891 21.0097 25.723 19.6624 27.0134C18.7881 27.8507 17.8843 28.716 17.005 29.5802Z" fill="black"/>
<path d="M26.9013 24.6497C24.4136 27.2383 21.8231 29.7004 19.3058 32.257C18.9963 32.0642 18.7102 31.8484 18.4453 31.6085C20.4495 29.7069 22.45 27.7968 24.402 25.8282C24.9435 25.2791 25.4807 24.7278 26.0128 24.1704L26.9013 24.6497Z" fill="white"/>
<path d="M19.3176 32.3564L19.2644 32.3235C18.9533 32.1295 18.6602 31.9084 18.3928 31.6665L18.3304 31.61L18.3917 31.552C20.3145 29.7276 22.3581 27.7789 24.3466 25.7734C24.9327 25.1793 25.4593 24.6374 25.9565 24.1167L25.9976 24.0737L27.0291 24.63L26.9579 24.7043C25.5207 26.1997 24.0248 27.6771 22.578 29.106C21.5196 30.1512 20.4251 31.2323 19.3618 32.3124L19.3176 32.3564ZM18.5606 31.6067C18.7884 31.807 19.0347 31.992 19.2941 32.1573C20.3445 31.0916 21.4237 30.0256 22.468 28.9943C23.8901 27.5899 25.3598 26.1384 26.7738 24.6696L26.0284 24.2675C25.5429 24.7755 25.0285 25.3046 24.4578 25.8833C22.4886 27.8689 20.4664 29.7986 18.5606 31.6067Z" fill="black"/>
<path d="M29.5372 32.9713C28.9843 33.7118 29.1853 34.7969 29.9861 35.3949C30.787 35.9929 31.8844 35.8773 32.4374 35.1368C32.9903 34.3962 32.7893 33.3112 31.9885 32.7131C31.1876 32.1153 30.0902 32.2308 29.5372 32.9713Z" fill="#FFD200"/>
<path d="M31.1175 35.8549C30.7135 35.8549 30.2974 35.7249 29.9394 35.4575C29.5363 35.1566 29.2656 34.7281 29.1772 34.2509C29.0884 33.7715 29.1941 33.3003 29.4747 32.9247C29.7552 32.5489 30.1768 32.3139 30.6618 32.2628C31.1431 32.212 31.6321 32.3498 32.0352 32.6508C32.8693 33.2735 33.0778 34.4098 32.5001 35.1836C32.1702 35.6252 31.6546 35.8549 31.1175 35.8549ZM30.8586 32.4087C30.7984 32.4087 30.7382 32.4118 30.6782 32.4182C30.2371 32.4647 29.8543 32.6776 29.6 33.0181C29.3458 33.3588 29.2503 33.7865 29.3309 34.2224C29.4122 34.6609 29.6614 35.055 30.0329 35.3325C30.7979 35.9035 31.8486 35.7949 32.3749 35.0903C32.9011 34.3854 32.7068 33.3474 31.9419 32.7759C31.6207 32.5362 31.2417 32.4087 30.8586 32.4087Z" fill="black"/>
<path d="M31.2204 32.9643C31.6119 33.5765 30.6612 34.1862 30.2688 33.5729C29.8774 32.9606 30.8282 32.351 31.2204 32.9643Z" fill="white"/>
<path d="M28.5731 -0.000208927L26.9915 0.448242L29.2951 8.57247L30.8767 8.12402L28.5731 -0.000208927Z" fill="#009CF7"/>
<path d="M9.24323 12.1417L8.28711 13.478L14.6081 18.0006L15.5642 16.6642L9.24323 12.1417Z" fill="#009CF7"/>
<path d="M18.0403 3.95099L16.6176 4.77393L21.1572 12.6219L22.5799 11.799L18.0403 3.95099Z" fill="#009CF7"/>
</svg>
