<svg width="80" height="77" viewBox="0 0 80 77" fill="none" xmlns="http://www.w3.org/2000/svg">
<path d="M66.3087 76.8427H12.3997C12.3997 76.8427 18.1196 66.9744 26.7437 68.21C35.3676 69.4457 34.5054 73.1743 41.2638 71.9575C46.0902 71.0886 44.9351 69.5238 50.6079 67.5021C58.5826 64.66 66.3087 76.8427 66.3087 76.8427Z" fill="#F4F1E3"/>
<path d="M72.7863 17.0805C72.7357 17.0805 72.6859 17.0571 72.6535 17.0132C72.6001 16.94 72.616 16.8371 72.6893 16.7838C72.797 16.6966 73.4874 15.9813 73.8106 15.6016C73.4302 15.6543 72.727 15.7878 72.0871 15.9246C71.9977 15.941 71.911 15.8868 71.8923 15.7982C71.8732 15.7093 71.9298 15.6221 72.0185 15.6032C74.2082 15.1355 74.2354 15.2232 74.2843 15.3819C74.3682 15.6519 72.8988 17.0375 72.8831 17.0488C72.8538 17.0703 72.8198 17.0805 72.7863 17.0805Z" fill="#241726"/>
<path d="M70.2535 17.1225C70.2535 17.1225 70.4126 14.5631 71.7479 15.0284C73.5976 15.673 74.4482 20.4414 70.9562 21.4764C67.4643 22.5114 66.2057 19.6394 66.2057 19.6394L68.0815 19.2091C68.0815 19.2091 66.7388 17.9955 66.8659 17.0017C66.9929 16.008 68.042 16.8837 68.042 16.8837C68.042 16.8837 66.8167 14.592 67.8352 14.5247C68.8537 14.4575 70.2535 17.1225 70.2535 17.1225Z" fill="#B1739A"/>
<path d="M71.829 16.823C71.472 16.823 71.1251 16.3002 71.0254 16.1369C70.9781 16.0593 71.0026 15.9584 71.0801 15.9112C71.1571 15.8637 71.2584 15.888 71.3057 15.9657C71.4431 16.1902 71.6584 16.434 71.784 16.4849C71.7856 16.3484 71.6921 16.0115 71.5649 15.7116C71.5296 15.6282 71.5687 15.5318 71.652 15.4965C71.7356 15.4612 71.8318 15.4998 71.8673 15.5834C72.001 15.8987 72.2038 16.4627 72.0593 16.6982C72.014 16.7723 71.9409 16.8162 71.8534 16.8223C71.8452 16.823 71.8371 16.823 71.829 16.823Z" fill="#241726"/>
<path d="M68.6746 19.2005C68.6377 19.2005 68.6006 19.188 68.5699 19.1626C68.4696 19.0792 67.5934 18.332 67.6566 17.7181C67.6777 17.5151 67.7952 17.4397 67.8634 17.4128C68.0643 17.3336 68.3541 17.4728 68.5982 17.6361C68.4862 17.0072 68.5445 16.6517 68.7732 16.5776C68.8706 16.5456 69.1668 16.4506 70.2534 18.1428C70.3023 18.2192 70.2801 18.3208 70.2038 18.3698C70.1273 18.4189 70.0259 18.3964 69.977 18.3205C69.5829 17.7066 69.0648 17.0244 68.8685 16.9083C68.842 17.0298 68.8949 17.5247 69.0131 17.9997C69.0302 18.0689 69.0006 18.1417 68.9395 18.1791C68.8784 18.2166 68.8004 18.2105 68.746 18.1633C68.4524 17.9083 68.0893 17.6912 67.9887 17.7172C67.9893 17.7201 67.9859 17.7316 67.9837 17.7522C67.9491 18.0841 68.4538 18.6386 68.7801 18.91C68.8496 18.968 68.8593 19.0717 68.8012 19.1412C68.7685 19.1803 68.7218 19.2005 68.6746 19.2005Z" fill="#241726"/>
<path d="M70.2106 20.8842C69.7093 20.8842 69.3401 20.786 69.3106 20.7781C69.2232 20.754 69.1718 20.6638 69.1957 20.5763C69.2196 20.4892 69.3098 20.4384 69.3973 20.4612C69.4101 20.4651 70.6863 20.8012 71.6656 20.1642C72.2549 19.7806 72.6252 19.119 72.7663 18.1978C72.7798 18.1079 72.8616 18.046 72.9535 18.0601C73.0432 18.0738 73.1048 18.1576 73.091 18.2471C72.9351 19.2663 72.5151 20.0043 71.8424 20.4409C71.3002 20.7928 70.694 20.8842 70.2106 20.8842Z" fill="#241726"/>
<path d="M1.49952 38.5876C1.46671 38.5876 1.43342 38.5776 1.40467 38.5565C1.38889 38.545 -0.0800132 37.1582 0.00342427 36.889C0.0546743 36.7261 0.0799868 36.644 2.26936 37.1106C2.35811 37.1295 2.41452 37.2167 2.39561 37.3056C2.37671 37.3942 2.28936 37.4493 2.20077 37.432C1.56092 37.2954 0.857956 37.1617 0.477331 37.109C0.800612 37.4887 1.49139 38.2046 1.60108 38.2931C1.6703 38.3492 1.68421 38.4518 1.62983 38.5228C1.59733 38.5651 1.54874 38.5876 1.49952 38.5876Z" fill="#241726"/>
<path d="M4.03422 38.6303C4.03422 38.6303 3.87515 36.0709 2.53984 36.5362C0.690154 37.1808 -0.160472 41.9492 3.33156 42.9842C6.82343 44.0192 8.08203 41.1472 8.08203 41.1472L6.2064 40.7169C6.2064 40.7169 7.54906 39.5033 7.42203 38.5095C7.295 37.5159 6.24593 38.3916 6.24593 38.3916C6.24593 38.3916 7.47125 36.0998 6.45265 36.0325C5.43406 35.9653 4.03422 38.6303 4.03422 38.6303Z" fill="#B1739A"/>
<path d="M2.45875 38.3312C2.45078 38.3312 2.4425 38.3312 2.43453 38.3305C2.34703 38.3244 2.27391 38.2805 2.22844 38.2065C2.08391 37.971 2.28687 37.4069 2.42047 37.0913C2.45609 37.0076 2.5525 36.9688 2.63578 37.0044C2.71922 37.0398 2.75812 37.136 2.72281 37.2196C2.59562 37.5198 2.50219 37.8566 2.50375 37.9932C2.62969 37.9423 2.845 37.6985 2.98203 37.4737C3.02953 37.396 3.13078 37.3719 3.20766 37.4191C3.28516 37.4663 3.30969 37.5673 3.26234 37.6449C3.16297 37.808 2.81562 38.3312 2.45875 38.3312Z" fill="#241726"/>
<path d="M5.61327 40.7083C5.56608 40.7083 5.51936 40.6882 5.48686 40.6489C5.42889 40.5794 5.43842 40.4757 5.50811 40.4177C5.83436 40.1463 6.33874 39.5919 6.30436 39.2599C6.30124 39.2294 6.29467 39.2191 6.29467 39.2191C6.2092 39.1944 5.83999 39.4125 5.54186 39.671C5.48749 39.7178 5.40905 39.7243 5.34842 39.6868C5.28733 39.6496 5.25764 39.5768 5.27483 39.5071C5.38655 39.0574 5.44014 38.5902 5.40358 38.4263C5.1967 38.5671 4.69499 39.2303 4.31092 39.8285C4.2617 39.9044 4.16014 39.9269 4.08405 39.8778C4.0078 39.8288 3.98561 39.7271 4.03452 39.6508C5.12155 37.9574 5.41686 38.0533 5.51467 38.0857C5.74342 38.1597 5.80186 38.515 5.68967 39.1438C5.93405 38.9808 6.22436 38.841 6.42467 38.9205C6.49264 38.9474 6.60999 39.0228 6.63124 39.2258C6.69452 39.8397 5.81842 40.5869 5.71811 40.6703C5.68749 40.6958 5.65014 40.7083 5.61327 40.7083Z" fill="#241726"/>
<path d="M4.07703 42.392C3.59375 42.392 2.9875 42.3006 2.44546 41.9487C1.77281 41.5121 1.35265 40.7742 1.19671 39.7549C1.18296 39.6654 1.24453 39.5818 1.33421 39.5679C1.42468 39.5538 1.50765 39.6157 1.5214 39.7056C1.6625 40.627 2.03281 41.2887 2.62234 41.672C3.60125 42.3088 4.87796 41.9724 4.89062 41.969C4.97828 41.9459 5.06843 41.997 5.09218 42.0842C5.11609 42.1717 5.06484 42.2618 4.97734 42.2859C4.94781 42.2939 4.57843 42.392 4.07703 42.392Z" fill="#241726"/>
<path d="M9.50835 15.8825C9.50835 15.8825 10.5185 12.8859 10.9518 13.1954C11.3852 13.5048 11.2763 14.0251 11.2763 14.0251C11.2763 14.0251 12.5365 12.397 13.2196 12.7951C13.9026 13.1932 13.2354 14.0014 13.2354 14.0014C13.2354 14.0014 15.3502 12.5009 15.6838 13.287C16.0174 14.0731 14.1105 15.679 14.1105 15.679C14.1105 15.679 15.211 14.9979 15.4394 15.9206C15.6679 16.8432 13.8204 17.0659 13.7055 17.0653C13.5907 17.0648 14.3091 17.0328 14.0937 17.6439C13.8782 18.2548 8.06491 18.5697 9.50835 15.8825Z" fill="#51AEA5"/>
<path d="M6.84038 19.1786C6.84038 19.1786 4.00928 20.5873 3.92085 20.0621C3.83241 19.537 4.27678 19.2454 4.27678 19.2454C4.27678 19.2454 2.23475 19.5086 2.0321 18.7443C1.82944 17.9801 2.87257 17.879 2.87257 17.879C2.87257 17.879 0.315535 17.4484 0.634285 16.6561C0.953035 15.8639 3.43741 16.0731 3.43741 16.0731C3.43741 16.0731 2.17725 15.7784 2.66694 14.9637C3.15663 14.149 4.6221 15.2959 4.70303 15.3773C4.78397 15.4587 4.25257 14.974 4.83663 14.6936C5.42085 14.4131 9.75975 18.295 6.84038 19.1786Z" fill="#51AEA5"/>
<path d="M10.2277 18.7053C10.2277 18.7053 12.8644 20.4508 12.4541 20.7903C12.0438 21.1297 11.569 20.891 11.569 20.891C11.569 20.891 12.819 22.5269 12.259 23.0849C11.6988 23.6428 11.0891 22.7905 11.0891 22.7905C11.0891 22.7905 11.9963 25.2196 11.151 25.3403C10.3057 25.461 9.24302 23.2056 9.24302 23.2056C9.24302 23.2056 9.61881 24.4441 8.66834 24.428C7.71787 24.4119 7.97709 22.5692 8.00709 22.4583C8.03709 22.3475 7.88349 23.05 7.34818 22.6849C6.81287 22.3197 8.00115 16.6205 10.2277 18.7053Z" fill="#51AEA5"/>
<path d="M10.9412 16.8375C10.6344 16.7733 10.3299 16.7886 10.0474 16.8672C10.1719 15.8963 9.53193 14.9774 8.5574 14.7735C7.53319 14.5591 6.52897 15.2158 6.31475 16.24C6.186 16.8557 6.37334 17.4628 6.76459 17.8968C6.08209 18.0674 5.52115 18.6108 5.3674 19.3457C5.15303 20.3699 5.80975 21.3741 6.83397 21.5883C7.85834 21.8027 8.8624 21.146 9.07662 20.1218C9.09115 20.0525 9.10084 19.9835 9.10756 19.9147C9.37084 20.2264 9.73475 20.4568 10.1649 20.5469C11.1893 20.7613 12.1933 20.1046 12.4076 19.0803C12.6221 18.056 11.9655 17.0519 10.9412 16.8375ZM8.67522 18.453C8.67272 18.4724 8.66944 18.4918 8.66772 18.5111C8.65444 18.4955 8.64069 18.4802 8.62709 18.465C8.64303 18.461 8.65928 18.4575 8.67522 18.453Z" fill="#D45A41"/>
<path d="M6.24209 17.9481C6.21022 17.9481 6.17787 17.9389 6.14959 17.9195C5.01162 17.1422 2.87772 17.238 2.85616 17.2376C2.76287 17.2476 2.68834 17.1722 2.68412 17.0819C2.67975 16.9914 2.74959 16.9144 2.84022 16.91C2.93194 16.9051 5.10522 16.8086 6.33506 17.6483C6.40991 17.6995 6.42912 17.8015 6.37803 17.8767C6.346 17.9231 6.29444 17.9481 6.24209 17.9481Z" fill="#241726"/>
<path d="M10.941 17.0015C10.864 17.0015 10.7952 16.9469 10.7801 16.8686C10.7627 16.7794 10.8209 16.6932 10.9098 16.6758C11.6087 16.5399 12.8188 15.0097 13.2263 14.4315C13.2785 14.3577 13.3805 14.3394 13.4552 14.3916C13.5293 14.4438 13.5471 14.5465 13.4949 14.6205C13.3373 14.8444 11.9273 16.8124 10.9727 16.9983C10.9619 17.0005 10.9515 17.0015 10.941 17.0015Z" fill="#241726"/>
<path d="M10.003 23.4147C9.9135 23.4147 9.84021 23.3428 9.83881 23.253C9.82928 22.6811 9.69131 21.1302 9.17334 20.8241C9.09521 20.7778 9.06943 20.6772 9.11537 20.5992C9.16162 20.5209 9.26209 20.4956 9.34037 20.5411C10.1085 20.995 10.1635 23.0184 10.1672 23.2477C10.1687 23.3381 10.0963 23.4128 10.0057 23.4144C10.0047 23.4147 10.0038 23.4147 10.003 23.4147Z" fill="#241726"/>
<path d="M10.081 16.8623C9.996 16.8309 9.90178 16.8742 9.86991 16.9595C9.86616 16.9695 9.48069 17.9845 8.6671 18.1429C8.63882 18.1485 8.61538 18.1626 8.59491 18.1799C8.55382 18.1513 8.51366 18.1221 8.46772 18.0962C7.82678 17.7337 7.28382 17.6132 6.85366 17.7403C6.48116 17.8499 6.33897 18.1037 6.32382 18.1321C6.2821 18.2117 6.31257 18.3088 6.39147 18.3515C6.47007 18.3948 6.56944 18.3649 6.61366 18.2867C6.61757 18.2799 6.70928 18.1212 6.95725 18.0518C7.19163 17.9876 7.61538 17.9909 8.306 18.3821C9.17944 18.876 8.92788 20.036 8.91678 20.0851C8.89678 20.1732 8.95194 20.2615 9.04022 20.2817C9.05257 20.2842 9.06491 20.2859 9.07694 20.2859C9.15178 20.2859 9.21928 20.2346 9.23678 20.1585C9.24819 20.1088 9.46553 19.1079 8.87319 18.4279C9.76741 18.1579 10.1612 17.1192 10.1782 17.0728C10.2094 16.9879 10.166 16.8937 10.081 16.8623Z" fill="#241726"/>
<path d="M9.40538 16.3854C9.33632 16.3854 9.27194 16.3415 9.24928 16.2721C9.031 15.6063 8.26366 15.6624 8.25647 15.6621C8.16444 15.6707 8.08678 15.6024 8.07928 15.5119C8.07194 15.4215 8.13913 15.3422 8.2296 15.3349C8.586 15.3022 9.32288 15.4424 9.56147 16.1701C9.58975 16.256 9.54272 16.3486 9.45663 16.3772C9.4396 16.3827 9.42225 16.3854 9.40538 16.3854Z" fill="#FBFCFF"/>
<path d="M11.8852 18.8116C11.8133 18.8116 11.7472 18.7638 11.7271 18.6913C11.5907 18.1987 10.8733 17.8973 10.8662 17.894C10.7824 17.8596 10.7426 17.7635 10.7769 17.6798C10.8115 17.596 10.9072 17.5563 10.991 17.5902C11.0265 17.6049 11.864 17.9552 12.0437 18.6034C12.0679 18.6909 12.0166 18.7813 11.9291 18.8054C11.9146 18.8096 11.8997 18.8116 11.8852 18.8116Z" fill="#FBFCFF"/>
<path d="M8.42553 19.7734C8.33569 19.7734 8.26241 19.7012 8.26131 19.611C8.26006 19.502 8.22084 19.4126 8.14194 19.3377C7.89053 19.0998 7.30881 19.0674 7.10475 19.0782C7.01772 19.0815 6.93772 19.0118 6.93366 18.921C6.92975 18.8306 7.00006 18.754 7.09053 18.7498C7.12647 18.7498 7.96272 18.7162 8.36741 19.0987C8.51256 19.236 8.58725 19.407 8.58991 19.607C8.591 19.6974 8.51834 19.7718 8.42772 19.7731C8.42694 19.7734 8.42616 19.7734 8.42553 19.7734Z" fill="#FBFCFF"/>
<path d="M70.4015 54.3549C70.4015 54.3549 67.6465 52.8027 68.0314 52.4347C68.4162 52.0668 68.907 52.271 68.907 52.271C68.907 52.271 67.5429 50.7288 68.0617 50.1321C68.5803 49.5355 69.2497 50.3419 69.2497 50.3419C69.2497 50.3419 68.1708 47.9841 69.0053 47.8032C69.8398 47.6222 71.0612 49.7957 71.0612 49.7957C71.0612 49.7957 70.5978 48.5874 71.5469 48.5354C72.4959 48.4833 72.3695 50.3399 72.3475 50.4526C72.3255 50.5652 72.4284 49.8535 72.9884 50.1793C73.5486 50.5052 72.7717 56.2749 70.4015 54.3549Z" fill="#51AEA5"/>
<path d="M73.1409 57.5919C73.1409 57.5919 73.9959 60.6363 73.4636 60.625C72.9312 60.6138 72.7278 60.1227 72.7278 60.1227C72.7278 60.1227 72.6048 62.1778 71.8162 62.2342C71.0277 62.2905 71.1231 61.2469 71.1231 61.2469C71.1231 61.2469 70.2223 63.6785 69.5036 63.2172C68.7848 62.7561 69.4545 60.3546 69.4545 60.3546C69.4545 60.3546 68.9297 61.5375 68.2208 60.9043C67.5119 60.271 68.9123 59.0455 69.0075 58.9813C69.1027 58.9169 68.5272 59.3485 68.3608 58.7222C68.1942 58.096 72.8183 54.5586 73.1409 57.5919Z" fill="#51AEA5"/>
<path d="M73.3092 54.1756C73.3092 54.1756 75.5165 51.9113 75.7734 52.3777C76.0303 52.8442 75.7069 53.2662 75.7069 53.2662C75.7069 53.2662 77.5476 52.3438 77.9911 52.9982C78.4345 53.6527 77.4833 54.0926 77.4833 54.0926C77.4833 54.0926 80.039 53.6551 79.9997 54.5082C79.9603 55.3613 77.5461 55.9837 77.5461 55.9837C77.5461 55.9837 78.8328 55.8459 78.6395 56.7765C78.4461 57.7071 76.6844 57.1084 76.5811 57.0582C76.4778 57.0081 77.1393 57.2902 76.6806 57.7477C76.222 58.2054 70.845 55.9734 73.3092 54.1756Z" fill="#51AEA5"/>
<path d="M74.4855 55.5708C74.4202 55.5436 74.3542 55.5211 74.2878 55.5018C74.6431 55.3015 74.9375 54.9869 75.1064 54.581C75.5083 53.6147 75.0508 52.5057 74.0847 52.1038C73.1184 51.7019 72.0094 52.1594 71.6075 53.1255C71.4872 53.4149 71.4453 53.7169 71.4697 54.0091C70.5391 53.7054 69.5167 54.1624 69.1344 55.0818C68.7325 56.048 69.19 57.1571 70.1561 57.559C70.7369 57.8005 71.3683 57.7297 71.8677 57.4265C71.9078 58.1288 72.3369 58.7815 73.03 59.0697C73.9963 59.4716 75.1053 59.0141 75.5072 58.0479C75.9092 57.0818 75.4517 55.9727 74.4855 55.5708ZM72.7711 55.6536C72.7897 55.6597 72.8081 55.6665 72.8267 55.6719C72.8089 55.6819 72.7912 55.6925 72.7737 55.7033C72.773 55.6868 72.7725 55.67 72.7711 55.6536Z" fill="#D45A41"/>
<path d="M70.164 61.2289C70.1565 61.2289 70.1487 61.2283 70.1411 61.2274C70.0512 61.2149 69.9887 61.1317 70.0012 61.0421C70.0139 60.951 70.3245 58.798 71.3797 57.7466C71.444 57.6827 71.5479 57.6827 71.6118 57.7472C71.6761 57.8113 71.6758 57.9153 71.6115 57.9794C70.635 58.9522 70.3295 61.0664 70.3264 61.0875C70.315 61.1696 70.2447 61.2289 70.164 61.2289Z" fill="#241726"/>
<path d="M71.6073 53.2898C71.5169 53.2898 71.4434 53.2167 71.4431 53.1262C71.44 52.4138 70.163 50.9392 69.6709 50.4312C69.608 50.366 69.6095 50.2621 69.6748 50.199C69.7403 50.1362 69.8442 50.1374 69.907 50.2029C70.0973 50.3995 71.7673 52.1523 71.7716 53.1251C71.7719 53.2159 71.6987 53.2896 71.608 53.2899L71.6073 53.2898Z" fill="#241726"/>
<path d="M75.07 55.6629C75.0314 55.6629 74.9926 55.6494 74.9615 55.6218C74.8934 55.5621 74.8869 55.4582 74.9467 55.3902C75.5362 54.7205 77.5347 55.0447 77.7603 55.0839C77.8497 55.0993 77.9093 55.1843 77.894 55.2735C77.8786 55.363 77.7942 55.4255 77.7042 55.4072C77.1409 55.31 75.5906 55.1555 75.1934 55.6071C75.1608 55.6439 75.1156 55.6629 75.07 55.6629Z" fill="#241726"/>
<path d="M74.5515 55.4207C74.5048 55.4 73.5619 54.9994 72.7834 55.4546C72.6856 54.5258 71.7384 53.945 71.6961 53.9194C71.6181 53.8732 71.5176 53.8972 71.4709 53.9755C71.4242 54.0532 71.4492 54.1541 71.5269 54.201C71.5362 54.2065 72.4614 54.7747 72.465 55.6035C72.4651 55.6324 72.4747 55.658 72.4878 55.6816C72.452 55.7168 72.4158 55.7507 72.3815 55.7911C71.9053 56.3533 71.6862 56.8643 71.7301 57.31C71.7683 57.6965 71.9911 57.8835 72.0162 57.9036C72.0462 57.9274 72.0819 57.939 72.1172 57.939C72.1648 57.939 72.212 57.918 72.2445 57.8783C72.3014 57.8088 72.2911 57.7058 72.2223 57.648C72.2164 57.6429 72.0775 57.523 72.0561 57.2663C72.0358 57.0244 72.1192 56.6088 72.632 56.0033C73.2806 55.2371 74.3736 55.7011 74.4195 55.7215C74.5036 55.758 74.5997 55.7196 74.6356 55.6368C74.6722 55.5538 74.6345 55.4572 74.5515 55.4207Z" fill="#241726"/>
<path d="M69.7884 55.69C69.7826 55.69 69.7767 55.6897 69.7709 55.6891C69.6806 55.6794 69.6154 55.5986 69.625 55.5085C69.6628 55.1528 69.935 54.4546 70.6939 54.3561C70.7836 54.3433 70.8662 54.4078 70.8778 54.4978C70.8895 54.588 70.8261 54.67 70.7362 54.6819C70.0415 54.7721 69.9522 55.5353 69.9514 55.543C69.9425 55.6275 69.8712 55.69 69.7884 55.69Z" fill="#FBFCFF"/>
<path d="M72.4936 53.471C72.4628 53.471 72.4317 53.4624 72.4039 53.4441C72.3281 53.3948 72.3067 53.293 72.3561 53.2174C72.377 53.1851 72.8776 52.4277 73.5481 52.3726C73.6395 52.3655 73.7178 52.4323 73.7253 52.5227C73.7326 52.6132 73.6654 52.6924 73.575 52.6998C73.0654 52.7418 72.6354 53.3902 72.6311 53.3966C72.5998 53.4448 72.5472 53.471 72.4936 53.471Z" fill="#FBFCFF"/>
<path d="M72.9297 57.4538C72.9218 57.4538 72.9137 57.4532 72.9058 57.452C72.8161 57.4392 72.7539 57.3557 72.767 57.2659C72.772 57.2309 72.897 56.4024 73.3483 56.0767C73.51 55.9603 73.6918 55.9182 73.8887 55.9535C73.9781 55.9693 74.0375 56.0546 74.0217 56.1437C74.0058 56.2332 73.922 56.2912 73.8314 56.2768C73.7233 56.2576 73.6287 56.2793 73.5409 56.3429C73.2598 56.5453 73.1215 57.112 73.0919 57.3134C73.08 57.3951 73.0098 57.4538 72.9297 57.4538Z" fill="#FBFCFF"/>
<path d="M26.8511 70.2848C26.8058 70.2848 26.7607 70.2662 26.7283 70.2297C26.708 70.2068 26.2318 69.6915 25.4847 70.0456C25.403 70.0837 25.305 70.0495 25.2661 69.9673C25.2272 69.8856 25.2621 69.7875 25.3443 69.7486C26.1253 69.379 26.7521 69.7592 26.9746 70.0122C27.0346 70.0804 27.0278 70.184 26.9597 70.244C26.9282 70.2714 26.8896 70.2848 26.8511 70.2848Z" fill="#241726"/>
<path d="M25.5557 71.2526C25.5103 71.2526 25.4652 71.234 25.4328 71.1974C25.4125 71.1743 24.9364 70.6587 24.1893 71.0134C24.1077 71.0515 24.0093 71.0173 23.9707 70.9351C23.9318 70.8534 23.9666 70.7552 24.0488 70.7163C24.8297 70.3468 25.4566 70.727 25.6789 70.9799C25.7389 71.0482 25.7322 71.1518 25.6641 71.2118C25.6328 71.2392 25.5941 71.2526 25.5557 71.2526Z" fill="#241726"/>
<path d="M23.3785 71.0671C23.3332 71.0671 23.288 71.0485 23.2557 71.0119C23.2355 70.9891 22.7605 70.4727 22.0121 70.8275C21.9304 70.866 21.8324 70.8311 21.7933 70.7493C21.7546 70.6675 21.7896 70.5694 21.8716 70.5305C22.6524 70.1604 23.2796 70.5415 23.5019 70.7944C23.5619 70.8627 23.5552 70.9663 23.4871 71.0263C23.4557 71.0536 23.4169 71.0671 23.3785 71.0671Z" fill="#241726"/>
<path d="M21.1852 70.1841C21.1371 70.1841 21.0894 70.1633 21.0571 70.1228C21.0004 70.0522 21.0113 69.9486 21.0821 69.8919C21.7647 69.3428 22.4516 69.5708 22.7191 69.7685C22.7922 69.8224 22.8079 69.925 22.7539 69.9982C22.7005 70.0707 22.5982 70.0868 22.5249 70.0335C22.4999 70.0152 21.9385 69.6243 21.288 70.148C21.2577 70.1722 21.2213 70.1841 21.1852 70.1841Z" fill="#241726"/>
<path d="M23.5569 70.0038C23.5063 70.0038 23.4563 69.9803 23.4241 69.9364C23.3707 69.8633 23.3866 69.7603 23.4599 69.7071C24.1649 69.1913 24.8422 69.4511 25.1021 69.6605C25.1727 69.7175 25.1836 69.8208 25.1268 69.8914C25.0704 69.9619 24.9671 69.9728 24.8966 69.9167C24.8732 69.8985 24.3265 69.4805 23.6535 69.9719C23.6244 69.9936 23.5905 70.0038 23.5569 70.0038Z" fill="#241726"/>
<path d="M20.6983 71.9359C20.6477 71.9359 20.5978 71.9125 20.5655 71.8686C20.5121 71.7954 20.528 71.6925 20.6013 71.6392C21.3064 71.1234 21.9836 71.3832 22.2435 71.5926C22.3141 71.6497 22.325 71.7529 22.2682 71.8236C22.2118 71.8942 22.1088 71.905 22.038 71.8489C22.0149 71.8312 21.4678 71.4123 20.7949 71.904C20.7658 71.9257 20.7319 71.9359 20.6983 71.9359Z" fill="#241726"/>
<path d="M19.3049 71.1798C19.2629 71.1798 19.2207 71.1637 19.1886 71.1317C19.1246 71.0675 19.1246 70.9632 19.1889 70.8995C19.8127 70.2764 20.5168 70.429 20.8011 70.5964C20.8794 70.6421 20.9054 70.7429 20.8593 70.8212C20.8136 70.8989 20.7132 70.9254 20.635 70.8796C20.6074 70.8636 20.0157 70.5387 19.4208 71.1317C19.3889 71.1639 19.3469 71.1798 19.3049 71.1798Z" fill="#241726"/>
<path d="M57.4031 69.6853C57.3578 69.6853 57.3126 69.6668 57.2803 69.6302C57.2601 69.6074 56.7842 69.0914 56.0367 69.4461C55.9546 69.4843 55.8568 69.45 55.8181 69.3678C55.7792 69.2861 55.814 69.1878 55.8962 69.1491C56.6768 68.7793 57.3042 69.1597 57.5265 69.4127C57.5865 69.481 57.5798 69.5846 57.5117 69.6446C57.4803 69.6719 57.4417 69.6853 57.4031 69.6853Z" fill="#241726"/>
<path d="M56.1078 70.653C56.0624 70.653 56.0173 70.6344 55.9849 70.5978C55.9646 70.575 55.4884 70.0591 54.7413 70.4138C54.6596 70.4519 54.5617 70.4177 54.5228 70.3355C54.4838 70.2538 54.5187 70.1555 54.6009 70.1167C55.3815 69.7472 56.0087 70.1274 56.2312 70.3803C56.2912 70.4486 56.2845 70.5522 56.2162 70.6122C56.1848 70.6394 56.1462 70.653 56.1078 70.653Z" fill="#241726"/>
<path d="M53.9304 70.4674C53.8851 70.4674 53.8399 70.4488 53.8076 70.4123C53.7873 70.3895 53.3117 69.8735 52.5643 70.2282C52.4821 70.2663 52.3846 70.2321 52.3456 70.1499C52.3067 70.0682 52.3415 69.9699 52.4235 69.9312C53.2045 69.5617 53.8313 69.9418 54.0538 70.1948C54.1138 70.2631 54.1071 70.3667 54.0388 70.4267C54.0076 70.454 53.969 70.4674 53.9304 70.4674Z" fill="#241726"/>
<path d="M51.7371 69.5844C51.689 69.5844 51.6413 69.5636 51.609 69.5231C51.5523 69.4525 51.5634 69.3489 51.634 69.2922C52.3162 68.7434 53.0037 68.9711 53.2712 69.1687C53.3443 69.2226 53.3598 69.3253 53.306 69.3984C53.2527 69.4712 53.1499 69.4869 53.0771 69.4337C53.0518 69.4158 52.4907 69.0242 51.8399 69.5483C51.8096 69.5725 51.7732 69.5844 51.7371 69.5844Z" fill="#241726"/>
<path d="M54.109 69.4042C54.0584 69.4042 54.0086 69.3807 53.9762 69.3368C53.9228 69.2637 53.9387 69.1607 54.012 69.1074C54.7171 68.5917 55.3942 68.8515 55.6542 69.0609C55.7248 69.1179 55.7357 69.2212 55.6789 69.2918C55.6223 69.3624 55.5193 69.3732 55.4487 69.3171C55.4257 69.2995 54.8789 68.8806 54.2056 69.3723C54.1765 69.3939 54.1425 69.4042 54.109 69.4042Z" fill="#241726"/>
<path d="M51.2506 71.3363C51.2 71.3363 51.1501 71.3129 51.1178 71.2689C51.0643 71.1958 51.0803 71.0929 51.1536 71.0396C51.8586 70.5238 52.5362 70.7836 52.7956 70.993C52.8664 71.05 52.8773 71.1533 52.8204 71.2239C52.7639 71.2943 52.6609 71.3057 52.5903 71.2493C52.5671 71.231 52.0207 70.8127 51.3471 71.3044C51.3181 71.326 51.284 71.3363 51.2506 71.3363Z" fill="#241726"/>
<path d="M49.857 70.5804C49.8149 70.5804 49.7728 70.5643 49.7407 70.5323C49.6767 70.4682 49.6767 70.3638 49.741 70.3001C50.3651 69.6763 51.0687 69.8296 51.3532 69.997C51.4314 70.0427 51.4573 70.1435 51.4114 70.2218C51.3654 70.2995 51.2648 70.3254 51.1874 70.2806C51.1623 70.2662 50.5696 69.9374 49.9729 70.5323C49.9409 70.5643 49.899 70.5804 49.857 70.5804Z" fill="#241726"/>
<path d="M5.67025 65.5893C5.54134 65.5893 5.41197 65.5796 5.28525 65.5607C5.19556 65.5476 5.13369 65.4638 5.14697 65.3743C5.16041 65.2844 5.244 65.2232 5.33369 65.236C5.53463 65.2655 5.74213 65.2677 5.94525 65.2446C6.03556 65.2352 6.11681 65.2988 6.12713 65.389C6.13759 65.4791 6.07291 65.5605 5.98275 65.5712C5.879 65.5832 5.77478 65.5893 5.67025 65.5893ZM6.60197 65.4224C6.53431 65.4224 6.47072 65.3804 6.44713 65.3127C6.41697 65.2271 6.46181 65.1335 6.54744 65.1033C6.73603 65.0369 6.92697 64.9485 7.11525 64.8404C7.194 64.7955 7.29431 64.8221 7.33947 64.901C7.38463 64.9796 7.35744 65.0799 7.27884 65.1252C7.07322 65.2432 6.86384 65.3401 6.6565 65.4132C6.63853 65.4196 6.62009 65.4224 6.60197 65.4224ZM4.68025 65.3818C4.65853 65.3818 4.63619 65.3772 4.61462 65.368C4.409 65.2782 4.20775 65.1608 4.01666 65.0188C3.94384 64.9646 3.92884 64.8619 3.98275 64.7891C4.03697 64.716 4.13978 64.7013 4.21259 64.7551C4.38369 64.8821 4.56306 64.9872 4.74619 65.0671C4.82931 65.1033 4.86728 65.2002 4.83088 65.2832C4.804 65.3449 4.74369 65.3818 4.68025 65.3818ZM7.73916 64.7772C7.69072 64.7772 7.64291 64.7561 7.61041 64.7154C7.554 64.6441 7.56588 64.5408 7.63681 64.4844C7.799 64.3555 7.95713 64.2118 8.10681 64.0572C8.16994 63.9918 8.27384 63.9905 8.339 64.0533C8.40431 64.1165 8.40588 64.2204 8.34291 64.2855C8.18322 64.4504 8.01447 64.6036 7.84119 64.7416C7.81103 64.7657 7.77494 64.7772 7.73916 64.7772ZM3.6265 64.613C3.58275 64.613 3.53916 64.5957 3.50666 64.561C3.35916 64.4038 3.21494 64.2271 3.07822 64.036C3.02541 63.9622 3.04244 63.8596 3.11619 63.8066C3.19025 63.754 3.29259 63.771 3.34541 63.8447C3.47369 64.0244 3.60853 64.1899 3.74619 64.3365C3.80838 64.4026 3.80509 64.5065 3.739 64.5683C3.70728 64.5982 3.66681 64.613 3.6265 64.613ZM8.65213 63.8365C8.61759 63.8365 8.58291 63.8255 8.55338 63.803C8.48088 63.7485 8.46666 63.6455 8.52134 63.573C8.65119 63.4011 8.76931 63.2227 8.87197 63.0429C8.91666 62.9643 9.01697 62.9371 9.09603 62.9816C9.17478 63.0268 9.20213 63.1269 9.15713 63.2058C9.04744 63.3979 8.92166 63.5882 8.78338 63.7713C8.75103 63.8141 8.70181 63.8365 8.65213 63.8365ZM2.85994 63.5507C2.80244 63.5507 2.74634 63.5202 2.71634 63.4663C2.60353 63.2643 2.50791 63.0555 2.43166 62.8463C2.40056 62.761 2.44447 62.6671 2.52978 62.636C2.61494 62.6049 2.70931 62.6488 2.74025 62.7341C2.81041 62.9269 2.899 63.1196 3.00306 63.3066C3.04728 63.3858 3.01884 63.4858 2.93963 63.5299C2.91447 63.544 2.88697 63.5507 2.85994 63.5507ZM2.41603 62.321C2.33759 62.321 2.26838 62.2649 2.25431 62.1851C2.21744 61.9724 2.19869 61.7563 2.19869 61.5416L2.36322 61.5029L2.52728 61.5233C2.52713 61.7372 2.54431 61.9349 2.57791 62.1285C2.59353 62.218 2.53369 62.303 2.44416 62.3183C2.43478 62.3204 2.42525 62.321 2.41603 62.321ZM2.42947 61.0147C2.41916 61.0147 2.409 61.0138 2.39853 61.0119C2.30931 60.9949 2.25103 60.9086 2.26806 60.8197C2.31025 60.5997 2.37213 60.3788 2.45244 60.1619C2.484 60.0769 2.57775 60.0333 2.66353 60.0651C2.74853 60.0965 2.79197 60.1912 2.76041 60.2762C2.6865 60.4757 2.62931 60.6793 2.59072 60.8813C2.57556 60.9599 2.50681 61.0147 2.42947 61.0147ZM2.88041 59.7871C2.85338 59.7871 2.82619 59.7804 2.80103 59.7666C2.72166 59.7227 2.69291 59.6226 2.73697 59.5433C2.84525 59.348 2.96947 59.1566 3.10634 58.9741C3.16056 58.9016 3.26384 58.8866 3.33619 58.9412C3.40884 58.9957 3.42353 59.0986 3.369 59.1711C3.24134 59.3418 3.12525 59.5204 3.02447 59.7026C2.99431 59.7566 2.93806 59.7871 2.88041 59.7871ZM6.14025 59.4532C6.13697 59.4532 6.13369 59.4532 6.13025 59.4529C5.91416 59.4401 5.68603 59.4051 5.45259 59.349C5.36463 59.3279 5.31025 59.239 5.33134 59.1507C5.35244 59.0629 5.43994 59.009 5.52963 59.0294C5.74416 59.0812 5.95291 59.1132 6.14994 59.1251C6.24041 59.1305 6.30947 59.2082 6.304 59.2986C6.29884 59.3858 6.2265 59.4532 6.14025 59.4532ZM6.79306 59.4085C6.71838 59.4085 6.65072 59.3572 6.63322 59.2811C6.61291 59.193 6.66806 59.1047 6.75634 59.0843C6.97119 59.0346 7.13181 58.9457 7.22056 58.8271C7.27463 58.7543 7.37775 58.7393 7.45041 58.7937C7.52306 58.8479 7.53791 58.9508 7.48369 59.0233C7.34588 59.208 7.12603 59.336 6.83025 59.4044C6.81775 59.4072 6.80525 59.4085 6.79306 59.4085ZM4.86556 59.1533C4.84525 59.1533 4.82431 59.1494 4.80431 59.1415C4.59306 59.0565 4.38744 58.9574 4.19291 58.8465C4.114 58.8016 4.08666 58.7011 4.1315 58.6222C4.17619 58.5433 4.2765 58.5161 4.35556 58.561C4.53744 58.6646 4.72947 58.7576 4.92697 58.8368C5.01119 58.8704 5.05181 58.9663 5.01806 59.0504C4.99213 59.1144 4.93041 59.1533 4.86556 59.1533ZM3.66431 58.7386C3.62306 58.7386 3.58181 58.7232 3.54978 58.6921C3.48478 58.629 3.48338 58.5251 3.5465 58.4599C3.55666 58.4496 3.56666 58.4394 3.57681 58.4291C3.41416 58.2993 3.26181 58.1585 3.12275 58.0102C3.06072 57.9441 3.064 57.8402 3.13009 57.7783C3.19666 57.7161 3.30025 57.7193 3.36228 57.7857C3.50072 57.9332 3.65384 58.0727 3.81759 58.2007C3.89353 58.1333 3.97134 58.0682 4.05072 58.006C4.12213 57.9496 4.22541 57.9624 4.28134 58.0336C4.33744 58.1049 4.32509 58.2082 4.25369 58.264C4.08806 58.3941 3.92931 58.5372 3.78166 58.689C3.74978 58.7219 3.70713 58.7386 3.66431 58.7386ZM7.43525 58.4624C7.36322 58.4624 7.29713 58.4146 7.27713 58.3418C7.25525 58.2632 7.22181 58.1785 7.17728 58.0904C7.12869 57.9941 7.07072 57.9082 7.00463 57.8351C6.94384 57.7677 6.94916 57.6641 7.0165 57.6032C7.08338 57.5429 7.18759 57.5477 7.24838 57.6151C7.334 57.7101 7.40884 57.8201 7.47041 57.9422C7.52478 58.0501 7.56619 58.1549 7.59369 58.2546C7.61791 58.3418 7.56666 58.4322 7.47916 58.4566C7.46463 58.4605 7.44994 58.4624 7.43525 58.4624ZM4.69572 57.9304C4.639 57.9304 4.58384 57.9008 4.55353 57.8483C4.50806 57.7701 4.53494 57.6694 4.61338 57.6241C4.81963 57.5047 5.02791 57.4063 5.23291 57.3316C5.31822 57.3012 5.41213 57.3444 5.44353 57.4294C5.47463 57.5147 5.43072 57.609 5.34556 57.6401C5.15853 57.7083 4.96775 57.7985 4.77806 57.9082C4.75181 57.9233 4.72353 57.9304 4.69572 57.9304ZM2.83666 57.5474C2.78322 57.5474 2.73088 57.5215 2.69916 57.4733C2.57291 57.2811 2.46478 57.0772 2.37728 56.8674C2.34228 56.7837 2.38197 56.6876 2.46572 56.6526C2.54931 56.6188 2.64572 56.6571 2.68041 56.741C2.76009 56.9321 2.85869 57.1179 2.97369 57.293C3.02338 57.3687 3.00244 57.4707 2.9265 57.5204C2.89884 57.5388 2.86759 57.5474 2.83666 57.5474ZM6.57681 57.5461C6.56134 57.5461 6.54588 57.544 6.53025 57.5394C6.35791 57.4885 6.15697 57.473 5.94416 57.4961C5.85228 57.5051 5.77291 57.441 5.76306 57.3505C5.75322 57.2604 5.81838 57.1796 5.90853 57.1696C6.16634 57.1413 6.40947 57.1613 6.62322 57.2244C6.71025 57.2501 6.75978 57.3415 6.73416 57.4283C6.71306 57.4999 6.64759 57.5461 6.57681 57.5461ZM2.33509 56.3427C2.259 56.3427 2.19072 56.2894 2.17463 56.2122C2.12853 55.9922 2.10181 55.7635 2.09509 55.5322C2.09259 55.4415 2.16384 55.3658 2.25447 55.3632C2.34509 55.3599 2.42072 55.4321 2.42353 55.5226C2.42963 55.7346 2.454 55.944 2.49603 56.1447C2.51463 56.2337 2.45775 56.3205 2.369 56.3391C2.35759 56.3418 2.34619 56.3427 2.33509 56.3427ZM2.26884 55.0349C2.26572 55.0349 2.26275 55.0349 2.25963 55.0346C2.169 55.0297 2.09963 54.9522 2.10478 54.8618C2.11744 54.6318 2.14072 54.4066 2.17384 54.1927C2.18791 54.1035 2.27181 54.0422 2.36134 54.0558C2.45103 54.0699 2.51244 54.1537 2.49853 54.2435C2.46697 54.4465 2.44478 54.6608 2.43259 54.8797C2.42775 54.9672 2.35541 55.0349 2.26884 55.0349ZM2.47478 53.7415C2.45994 53.7415 2.44478 53.7396 2.42994 53.7354C2.34275 53.7107 2.29197 53.6199 2.31666 53.5327C2.38041 53.3069 2.45869 53.0918 2.54931 52.8929C2.58697 52.8101 2.68478 52.7743 2.76681 52.8115C2.84947 52.849 2.88588 52.9465 2.84822 53.029C2.76447 53.213 2.69181 53.4126 2.63259 53.6219C2.61228 53.6943 2.54634 53.7415 2.47478 53.7415ZM4.40259 52.6541C4.3965 52.6541 4.39041 52.6538 4.38416 52.6532C4.15275 52.6272 3.92525 52.5736 3.70791 52.4935C3.62275 52.4624 3.57931 52.3677 3.61056 52.2827C3.64213 52.1977 3.73713 52.1541 3.8215 52.1855C4.014 52.2565 4.21556 52.3038 4.42072 52.3266C4.51088 52.3369 4.57572 52.418 4.56572 52.5082C4.55619 52.5919 4.48509 52.6541 4.40259 52.6541ZM5.05744 52.6435C4.97759 52.6435 4.90759 52.5851 4.89525 52.504C4.88166 52.4141 4.94322 52.3304 5.03291 52.3169C5.254 52.2833 5.44978 52.2166 5.58431 52.1283C5.65994 52.079 5.76197 52.1004 5.8115 52.1761C5.86119 52.2518 5.83994 52.3538 5.76384 52.4035C5.58838 52.518 5.35259 52.6004 5.08213 52.6415C5.074 52.6429 5.06572 52.6435 5.05744 52.6435ZM3.02322 52.5554C2.99056 52.5554 2.95728 52.5457 2.92853 52.5252C2.85447 52.4729 2.83681 52.3702 2.88931 52.2961C2.93088 52.2374 2.97416 52.1804 3.01869 52.1255C2.85603 52.0072 2.70431 51.8708 2.56697 51.7191C2.50603 51.6518 2.51134 51.5479 2.57853 51.4869C2.64572 51.4266 2.74963 51.4315 2.81041 51.4985C2.94072 51.6426 3.08541 51.7711 3.24088 51.8805C3.2765 51.8455 3.31275 51.8116 3.34978 51.7788C3.41728 51.7182 3.52103 51.7246 3.5815 51.7926C3.64166 51.8605 3.63541 51.9644 3.56759 52.0244C3.41869 52.1566 3.28056 52.3118 3.15759 52.486C3.12556 52.5313 3.07478 52.5554 3.02322 52.5554ZM5.83244 51.8847C5.784 51.8847 5.73619 51.8635 5.70369 51.8229C5.69228 51.8085 5.679 51.794 5.664 51.7796C5.55228 51.673 5.40306 51.5916 5.234 51.5444C5.14681 51.5201 5.09556 51.4296 5.11994 51.3424C5.14431 51.2549 5.23478 51.2035 5.32213 51.2282C5.54259 51.2894 5.73931 51.3982 5.89119 51.5426C5.91822 51.5688 5.94103 51.5935 5.96072 51.6182C6.01697 51.6894 6.00525 51.7927 5.93431 51.8491C5.90431 51.8732 5.86822 51.8847 5.83244 51.8847ZM4.00181 51.701C3.94088 51.701 3.88244 51.6669 3.85416 51.6086C3.81431 51.5272 3.84822 51.4291 3.92963 51.3893C4.14838 51.2824 4.37572 51.2132 4.60556 51.1827C4.69728 51.1693 4.77791 51.2344 4.78978 51.3241C4.80166 51.414 4.73838 51.4966 4.64853 51.5085C4.45384 51.5341 4.26041 51.5932 4.07369 51.6843C4.05041 51.6955 4.02588 51.701 4.00181 51.701ZM2.30431 51.2426C2.24775 51.2426 2.19259 51.2133 2.16213 51.1608C2.05197 50.971 1.95478 50.7621 1.87369 50.5405C1.84244 50.4555 1.88603 50.3613 1.97119 50.3297C2.05697 50.299 2.15056 50.3422 2.18197 50.4276C2.25666 50.6312 2.34572 50.8224 2.44634 50.9958C2.49197 51.0744 2.46509 51.1747 2.38666 51.2204C2.36072 51.2355 2.33228 51.2426 2.30431 51.2426ZM1.84634 50.018C1.77072 50.018 1.70259 49.9654 1.68603 49.8885C1.67291 49.8276 1.66056 49.7654 1.649 49.7021C1.619 49.5379 1.59509 49.3788 1.57728 49.2252C1.56666 49.1351 1.63134 49.0536 1.7215 49.043C1.81384 49.0341 1.89291 49.0976 1.90353 49.1874C1.92072 49.334 1.94322 49.486 1.97197 49.6432C1.98291 49.7032 1.99463 49.7615 2.00713 49.8193C2.02619 49.9077 1.96994 49.9954 1.88119 50.0143C1.86947 50.0168 1.85791 50.018 1.84634 50.018ZM1.69822 48.7154C1.60822 48.7154 1.53494 48.6429 1.534 48.5527L1.53384 48.5065C1.53384 48.2893 1.54681 48.0769 1.57228 47.876C1.58384 47.7858 1.66666 47.723 1.75588 47.7337C1.84588 47.7452 1.90947 47.8272 1.89806 47.9171C1.87416 48.1051 1.86213 48.3032 1.86213 48.5066L1.86228 48.5496C1.86322 48.6401 1.79041 48.7144 1.69978 48.7154C1.69931 48.7154 1.69869 48.7154 1.69822 48.7154ZM1.86963 47.4193C1.854 47.4193 1.83822 47.4171 1.82259 47.4126C1.73572 47.3863 1.68634 47.2949 1.71228 47.2079C1.77931 46.984 1.86619 46.7697 1.97072 46.5716C2.01306 46.4915 2.11213 46.461 2.19259 46.503C2.27275 46.5454 2.30353 46.6447 2.26119 46.7249C2.1665 46.9041 2.08759 47.0985 2.02681 47.3022C2.00556 47.3733 1.94041 47.4193 1.86963 47.4193ZM2.48009 46.2679C2.44306 46.2679 2.40572 46.2554 2.37509 46.2297C2.30556 46.1716 2.29603 46.068 2.35431 45.9985C2.50088 45.8227 2.66759 45.6611 2.84978 45.518C2.92119 45.4626 3.02416 45.4744 3.08025 45.5458C3.13634 45.6171 3.12384 45.7204 3.05244 45.7765C2.88838 45.9051 2.73838 46.0507 2.60634 46.2088C2.574 46.2477 2.52728 46.2679 2.48009 46.2679ZM3.50572 45.4599C3.44556 45.4599 3.38775 45.4269 3.35884 45.3694C3.31806 45.2883 3.35088 45.1897 3.43181 45.1491C3.79963 44.9641 4.07666 44.906 4.08822 44.9035C4.17759 44.8846 4.26369 44.9422 4.28197 45.0311C4.30025 45.1199 4.24322 45.2069 4.15447 45.2252C4.15213 45.2258 3.90556 45.2785 3.57947 45.4424C3.55572 45.4546 3.53041 45.4599 3.50572 45.4599Z" fill="#241726"/>
<path d="M73.1004 45.8724C73.0957 45.8724 73.0909 45.8721 73.0863 45.8718C72.8584 45.8523 72.6293 45.8026 72.4055 45.7237C72.3201 45.6935 72.2752 45.5996 72.3054 45.5143C72.3355 45.4287 72.4288 45.3831 72.5149 45.4138C72.7123 45.4834 72.914 45.5274 73.1141 45.5448C73.2046 45.5524 73.2715 45.632 73.2638 45.7224C73.2566 45.8081 73.1848 45.8724 73.1004 45.8724ZM73.7538 45.8407C73.6762 45.8407 73.6071 45.7856 73.5924 45.7063C73.5759 45.6171 73.6349 45.5315 73.7241 45.5153C73.9209 45.4787 74.118 45.4159 74.3099 45.3282C74.3927 45.2907 74.4896 45.327 74.5276 45.4093C74.5651 45.4921 74.5288 45.5892 74.4463 45.6271C74.2299 45.7259 74.0071 45.7968 73.7838 45.8379C73.7737 45.8398 73.7637 45.8407 73.7538 45.8407ZM71.8695 45.4482C71.8401 45.4482 71.8102 45.4403 71.7834 45.4238C71.5935 45.3065 71.4093 45.1676 71.2357 45.0101C71.1685 44.9495 71.1634 44.8456 71.2243 44.7782C71.2849 44.7109 71.3891 44.7057 71.4563 44.767C71.6149 44.9107 71.783 45.0378 71.9559 45.1442C72.033 45.192 72.057 45.2931 72.0093 45.3703C71.9784 45.4206 71.9245 45.4482 71.8695 45.4482ZM74.9435 45.3096C74.8926 45.3096 74.8423 45.2859 74.8102 45.2417C74.7571 45.1679 74.7737 45.0653 74.8473 45.0123C75.0088 44.8956 75.1704 44.7579 75.3274 44.6031C75.3924 44.5396 75.4962 44.5403 75.5596 44.6049C75.6234 44.6695 75.6226 44.7734 75.558 44.8371C75.389 45.0035 75.2148 45.1521 75.0395 45.2784C75.0104 45.2996 74.9768 45.3096 74.9435 45.3096ZM70.8988 44.5726C70.8501 44.5726 70.802 44.551 70.7696 44.5098C70.6234 44.3237 70.4974 44.1301 70.3951 43.9348C70.353 43.8543 70.384 43.7551 70.4643 43.7128C70.5448 43.6713 70.6438 43.7018 70.6859 43.782C70.779 43.9599 70.894 44.1367 71.0277 44.307C71.0838 44.3782 71.0713 44.4815 71.0001 44.5376C70.9701 44.561 70.9343 44.5726 70.8988 44.5726ZM75.8816 44.3965C75.8455 44.3965 75.8091 44.3846 75.7788 44.3603C75.7082 44.3035 75.6971 44.1999 75.7538 44.1293C75.8362 44.0267 75.9187 43.9179 76.0009 43.8032C76.0463 43.7393 76.089 43.6759 76.129 43.6131C76.1782 43.5368 76.2796 43.5143 76.3557 43.5628C76.4323 43.6115 76.4546 43.7132 76.406 43.7895C76.3627 43.8574 76.3168 43.9254 76.268 43.9938C76.1821 44.1145 76.0959 44.2282 76.0096 44.3354C75.9773 44.3757 75.9298 44.3965 75.8816 44.3965ZM76.573 43.2849C76.5521 43.2849 76.5305 43.2807 76.5101 43.2724C76.4263 43.2374 76.3866 43.1417 76.4213 43.0576C76.5035 42.8604 76.5637 42.6603 76.6004 42.4629C76.6171 42.3737 76.7018 42.3148 76.7921 42.3317C76.8813 42.3484 76.9399 42.434 76.9235 42.5231C76.8824 42.7431 76.8155 42.9654 76.7248 43.1838C76.6985 43.2467 76.6374 43.2849 76.573 43.2849ZM76.8062 42.0038C76.7195 42.0038 76.647 41.9359 76.6423 41.8482C76.6316 41.6443 76.597 41.4396 76.5387 41.2398C76.5134 41.1529 76.5634 41.0618 76.6504 41.0362C76.7374 41.0115 76.8285 41.0609 76.8538 41.1481C76.9191 41.3723 76.9584 41.602 76.9702 41.8309C76.9749 41.9217 76.9052 41.999 76.8148 42.0034C76.812 42.0039 76.8091 42.0038 76.8062 42.0038ZM76.4479 40.7518C76.3891 40.7518 76.3324 40.7204 76.3027 40.6649C76.2076 40.4863 76.0918 40.3099 75.9587 40.1409C75.9027 40.0693 75.9149 39.966 75.9862 39.9103C76.0574 39.8538 76.161 39.867 76.2168 39.9374C76.362 40.1218 76.4884 40.3146 76.5927 40.5103C76.6354 40.5904 76.6051 40.6899 76.5251 40.7326C76.5002 40.7457 76.4738 40.7518 76.4479 40.7518ZM73.2623 39.9949C73.173 39.9949 73.0998 39.9234 73.098 39.834C73.0963 39.7435 73.1684 39.6685 73.2588 39.6667C73.4421 39.6631 73.6438 39.6276 73.8584 39.5612C73.946 39.534 74.037 39.5831 74.0638 39.6696C74.0905 39.7562 74.0421 39.8482 73.9555 39.8749C73.7115 39.9503 73.4793 39.991 73.2654 39.9953C73.2645 39.9949 73.2634 39.9949 73.2623 39.9949ZM72.6345 39.8406C72.6024 39.8406 72.5699 39.8312 72.5416 39.8117C72.3337 39.6687 72.2191 39.447 72.2191 39.1879C72.2191 39.1553 72.2209 39.1215 72.2246 39.0871C72.2341 38.9967 72.3135 38.9299 72.4054 38.9412C72.4955 38.9509 72.5609 39.0317 72.5512 39.1218C72.5488 39.1446 72.5476 39.1667 72.5476 39.1879C72.5476 39.3399 72.6082 39.4588 72.7277 39.541C72.8024 39.5923 72.8213 39.6946 72.7701 39.7693C72.738 39.8159 72.6866 39.8406 72.6345 39.8406ZM75.6432 39.7207C75.6029 39.7207 75.5626 39.706 75.531 39.6765C75.393 39.547 75.2452 39.4248 75.0909 39.3124C74.9237 39.4249 74.7549 39.5257 74.5882 39.612C74.5074 39.6537 74.4084 39.622 74.367 39.5413C74.3254 39.4609 74.3568 39.3617 74.4374 39.3201C74.6168 39.2274 74.7991 39.1165 74.9796 38.9904C75.0299 38.9551 75.0938 38.9526 75.1459 38.9776C75.1748 38.9798 75.2037 38.9895 75.229 39.0074C75.4143 39.1382 75.5915 39.2829 75.7555 39.4365C75.8218 39.4987 75.8251 39.6026 75.763 39.6687C75.7305 39.7034 75.687 39.7207 75.6432 39.7207ZM74.5729 38.9645C74.5476 38.9645 74.5218 38.9587 74.4976 38.9462C74.3034 38.8454 74.1082 38.7634 73.9176 38.7021C73.8312 38.6745 73.7837 38.5821 73.8115 38.4956C73.8395 38.4093 73.9323 38.3618 74.018 38.3898C74.226 38.4565 74.4382 38.5457 74.6487 38.6543C74.7291 38.696 74.7605 38.7951 74.7188 38.8756C74.6896 38.932 74.6324 38.9645 74.5729 38.9645ZM75.5898 38.8838C75.544 38.8838 75.4985 38.8649 75.4662 38.8278C75.4065 38.7595 75.4134 38.6556 75.4818 38.5959C75.639 38.4585 75.7948 38.3095 75.9452 38.152C76.0077 38.0865 76.1121 38.0843 76.1773 38.1468C76.2429 38.2093 76.2452 38.3132 76.1826 38.379C76.0255 38.5432 75.8626 38.6995 75.6979 38.8434C75.6665 38.8704 75.628 38.8838 75.5898 38.8838ZM72.6915 38.712C72.6373 38.712 72.5841 38.6851 72.5529 38.6359C72.5041 38.5596 72.5266 38.4579 72.6029 38.4092C72.7673 38.3046 72.9782 38.2514 73.2298 38.2514C73.259 38.2488 73.2977 38.2523 73.333 38.2542C73.4237 38.2587 73.4932 38.3359 73.4888 38.4263C73.4841 38.5171 73.4066 38.5906 73.3165 38.582C73.2871 38.5804 73.2549 38.5774 73.2302 38.5798C73.0445 38.5798 72.8888 38.6167 72.7798 38.6862C72.7523 38.7037 72.7216 38.712 72.6915 38.712ZM76.4974 37.9368C76.461 37.9368 76.4245 37.9246 76.394 37.8999C76.3235 37.8429 76.313 37.7393 76.3702 37.669C76.5024 37.5063 76.6334 37.3332 76.7596 37.1543C76.8118 37.0803 76.9148 37.0623 76.9885 37.1145C77.0626 37.1668 77.0804 37.2693 77.0282 37.3434C76.8977 37.5284 76.7621 37.7078 76.6251 37.8762C76.5924 37.9163 76.5452 37.9368 76.4974 37.9368ZM77.2543 36.8646C77.2249 36.8646 77.1952 36.857 77.1685 36.8403C77.0912 36.7928 77.067 36.6918 77.1146 36.6145C77.1943 36.4846 77.2734 36.3503 77.3513 36.211C77.3802 36.1592 77.4077 36.1078 77.4338 36.0562C77.4751 35.9754 77.574 35.9435 77.6545 35.9837C77.7354 36.0248 77.7679 36.1235 77.727 36.2043C77.6987 36.2598 77.6691 36.3156 77.6379 36.3713C77.5576 36.5143 77.4765 36.6526 77.3945 36.7863C77.3634 36.8367 77.3095 36.8646 77.2543 36.8646ZM77.8276 35.687C77.8116 35.687 77.7954 35.6848 77.7793 35.6796C77.6926 35.6531 77.644 35.5613 77.6705 35.4743C77.7332 35.271 77.7751 35.0657 77.7951 34.8643C77.8038 34.7738 77.8813 34.7104 77.9746 34.7168C78.0648 34.7257 78.1309 34.8063 78.1218 34.8963C78.0996 35.1199 78.0535 35.3467 77.9845 35.5712C77.9627 35.6417 77.8979 35.687 77.8276 35.687ZM77.9515 34.3893C77.8695 34.3893 77.7985 34.3281 77.7885 34.2443C77.7645 34.0426 77.7177 33.839 77.6498 33.6401C77.6204 33.5542 77.6663 33.4609 77.7521 33.4313C77.8376 33.4028 77.9315 33.4481 77.9605 33.5337C78.036 33.7546 78.0879 33.9807 78.1146 34.2059C78.1254 34.2957 78.061 34.3774 77.971 34.3881C77.9646 34.389 77.9579 34.3893 77.9515 34.3893ZM77.5354 33.1542C77.4782 33.1542 77.4227 33.1243 77.3924 33.0707C77.292 32.8937 77.1729 32.7182 77.038 32.5492C76.9815 32.4782 76.993 32.3749 77.0638 32.3185C77.1349 32.2624 77.2382 32.2734 77.2946 32.3445C77.4402 32.527 77.5693 32.7168 77.6782 32.909C77.7229 32.9879 77.6952 33.0879 77.6163 33.1326C77.5905 33.1474 77.5629 33.1542 77.5354 33.1542ZM76.7221 32.1265C76.6812 32.1265 76.6404 32.1113 76.6084 32.0809C76.4584 31.9373 76.2951 31.7984 76.1226 31.6681C76.0502 31.6132 76.0359 31.5103 76.0905 31.4378C76.1451 31.3653 76.248 31.3515 76.3205 31.4057C76.5032 31.5437 76.6765 31.6912 76.8359 31.8435C76.9013 31.9063 76.9035 32.0103 76.8407 32.0757C76.8084 32.1096 76.7652 32.1265 76.7221 32.1265ZM72.8046 31.9059C72.4848 31.9059 72.283 31.6904 72.2651 31.3295C72.2605 31.239 72.3304 31.1621 72.421 31.1576C72.5077 31.1429 72.5887 31.2228 72.5932 31.3135C72.6063 31.5774 72.7402 31.5774 72.8046 31.5774C72.8938 31.5774 72.9773 31.6487 72.9795 31.7378C72.9813 31.827 72.9224 31.9013 72.8332 31.9053C72.8307 31.9056 72.8071 31.9059 72.8046 31.9059ZM73.4304 31.6685C73.3768 31.6685 73.3245 31.6426 73.2929 31.5945C73.2432 31.5185 73.2641 31.4168 73.3401 31.3671C73.4977 31.2635 73.6591 31.1301 73.8198 30.9698C73.8841 30.9063 73.988 30.906 74.052 30.9701C74.1159 31.0346 74.1159 31.1385 74.0516 31.2026C73.8754 31.3784 73.6966 31.5262 73.5204 31.6417C73.4927 31.6599 73.4615 31.6685 73.4304 31.6685ZM75.677 31.3348C75.6482 31.3348 75.6191 31.3274 75.5927 31.3113C75.4087 31.2013 75.2184 31.1007 75.0274 31.0128C74.9451 30.9749 74.9091 30.8774 74.9471 30.7949C74.9849 30.7121 75.0816 30.6759 75.1651 30.7145C75.3666 30.8074 75.5673 30.9134 75.7615 31.0298C75.8393 31.0763 75.8646 31.177 75.818 31.2549C75.7873 31.3062 75.7327 31.3348 75.677 31.3348ZM72.6041 30.8699C72.5646 30.8699 72.5252 30.8559 72.4938 30.8273C72.4266 30.7663 72.4216 30.6624 72.4826 30.5954C72.6379 30.4242 72.8699 30.319 73.1723 30.2828C73.2645 30.2715 73.3441 30.336 73.3551 30.4262C73.3659 30.516 73.3016 30.5978 73.2116 30.6087C72.9929 30.6353 72.8249 30.7068 72.7255 30.8162C72.6932 30.8517 72.6487 30.8699 72.6041 30.8699ZM74.4846 30.7873C74.4677 30.7873 74.4509 30.7848 74.434 30.7793C74.407 30.7707 74.3799 30.762 74.353 30.754C74.3302 30.7521 74.3074 30.7457 74.2866 30.7342C74.126 30.6879 73.9699 30.6531 73.8213 30.6299C73.7318 30.6159 73.6704 30.5321 73.6845 30.4423C73.6984 30.3531 73.7816 30.2929 73.8721 30.3054C74.011 30.3273 74.1551 30.3581 74.303 30.3978C74.4032 30.2579 74.4979 30.111 74.5852 29.9596C74.6305 29.881 74.7312 29.8538 74.8096 29.8996C74.8882 29.9449 74.9151 30.0453 74.8698 30.1238C74.7904 30.2612 74.7054 30.3953 74.6159 30.5242C74.647 30.5656 74.6582 30.621 74.641 30.674C74.6184 30.7429 74.554 30.7873 74.4846 30.7873ZM75.0218 29.6185C75.0001 29.6185 74.978 29.6143 74.9566 29.6051C74.8734 29.5692 74.8352 29.4723 74.8712 29.3893C74.9552 29.1949 75.0288 28.9935 75.0902 28.7906C75.1163 28.704 75.2082 28.6549 75.2949 28.6809C75.3816 28.7071 75.4309 28.7985 75.4046 28.8856C75.3396 29.1007 75.2616 29.314 75.1727 29.5196C75.1459 29.5817 75.0852 29.6185 75.0218 29.6185ZM75.401 28.3642C75.3913 28.3642 75.3816 28.3632 75.3716 28.3617C75.2824 28.3456 75.2232 28.2599 75.2391 28.1709C75.2768 27.9624 75.3027 27.7495 75.316 27.5381C75.3216 27.4476 75.4004 27.3745 75.4904 27.3845C75.5809 27.3903 75.6496 27.4682 75.6438 27.5587C75.6298 27.7829 75.6023 28.0084 75.5626 28.2293C75.548 28.3084 75.479 28.3642 75.401 28.3642ZM75.4745 27.057C75.3907 27.057 75.3193 26.9935 75.3112 26.9085C75.2909 26.6962 75.2501 26.492 75.1896 26.3013C75.1621 26.2148 75.2099 26.1224 75.2965 26.0951C75.3834 26.0685 75.4754 26.1156 75.5027 26.202C75.5701 26.4146 75.6159 26.6417 75.638 26.8771C75.6466 26.9676 75.5805 27.0478 75.4902 27.0563C75.4849 27.0565 75.4796 27.057 75.4745 27.057ZM75.0768 25.8203C75.0213 25.8203 74.9671 25.792 74.9362 25.7413C74.8313 25.5682 74.7038 25.4049 74.557 25.2554C74.4935 25.1906 74.4945 25.0867 74.559 25.0232C74.6238 24.9595 74.7273 24.9604 74.7913 25.0251C74.9557 25.1926 75.0991 25.3763 75.2171 25.5707C75.2641 25.6484 75.2395 25.7493 75.1618 25.7965C75.1351 25.8124 75.1057 25.8203 75.0768 25.8203ZM74.1695 24.8856C74.1377 24.8856 74.1055 24.8762 74.0771 24.857C73.9112 24.744 73.7266 24.6392 73.5285 24.5459C73.4466 24.5074 73.4115 24.4093 73.4501 24.3274C73.4885 24.2449 73.587 24.2104 73.6687 24.2488C73.8823 24.3496 74.082 24.4628 74.2621 24.5856C74.337 24.6365 74.3565 24.7388 74.3052 24.8137C74.2735 24.8606 74.2218 24.8856 74.1695 24.8856ZM72.9873 24.3201C72.9702 24.3201 72.953 24.3174 72.9362 24.3121C72.7388 24.2473 72.5305 24.1909 72.3174 24.144C72.2288 24.1248 72.1727 24.0371 72.1921 23.9487C72.2113 23.8598 72.2984 23.8037 72.3876 23.8232C72.6115 23.8723 72.8305 23.9317 73.0384 23.9996C73.1245 24.0282 73.1715 24.1209 73.1432 24.2071C73.1207 24.2762 73.0563 24.3201 72.9873 24.3201ZM71.7038 24.0354C71.697 24.0354 71.6899 24.0351 71.6827 24.0342C71.3023 23.9854 71.0465 23.9832 71.0438 23.9832C70.9532 23.9826 70.8802 23.9085 70.8807 23.8181C70.8813 23.7276 70.9546 23.6548 71.0449 23.6548C71.0563 23.657 71.3109 23.6557 71.7243 23.7084C71.8143 23.7199 71.8777 23.802 71.8663 23.8921C71.856 23.9748 71.7852 24.0354 71.7038 24.0354Z" fill="#241726"/>
<path d="M64.4503 33.9473C64.4503 33.9473 60.9507 28.0676 62.3295 28.3916C63.7084 28.7157 64.8101 32.4249 64.8101 32.4249C64.8101 32.4249 65.0067 24.999 65.9339 26.1155C66.8612 27.2321 65.9339 31.034 65.9339 31.034C65.9339 31.034 65.9254 24.9063 67.0887 26.1155C68.252 27.3248 67.0887 31.4977 67.0887 31.4977C67.0887 31.4977 68.252 26.3501 68.8084 27.3476C69.3648 28.3449 67.9739 32.5179 67.9739 32.5179C67.9739 32.5179 69.9212 29.2609 70.2922 30.0085C70.6631 30.756 67.0887 35.2071 67.0887 35.2071V38.3599L64.0792 37.8324L64.4503 33.9473Z" fill="#E38B72"/>
<path d="M66.1636 34.3814C66.1491 34.3814 66.1343 34.3796 66.1196 34.3753C66.0324 34.3513 65.9811 34.2608 66.0052 34.1733C66.0855 33.8827 66.2176 33.0505 65.8671 32.6956C65.6699 32.4958 65.3283 32.458 64.8519 32.5835C64.7646 32.6078 64.6746 32.5542 64.6513 32.4664C64.6282 32.3789 64.6807 32.2891 64.7682 32.266C65.3665 32.1085 65.8151 32.1758 66.1013 32.4655C66.6563 33.0283 66.3354 34.2113 66.3216 34.2613C66.3016 34.3341 66.2355 34.3814 66.1636 34.3814Z" fill="#241726"/>
<path d="M65.934 31.1983C65.8468 31.1983 65.7742 31.1297 65.7701 31.0414C65.739 30.3592 65.8796 28.4599 65.8857 28.3794C65.8923 28.2889 65.9721 28.2197 66.0617 28.2277C66.1521 28.2344 66.22 28.3133 66.2132 28.4038C66.2118 28.4233 66.0681 30.3641 66.0982 31.0266C66.1025 31.117 66.0321 31.1941 65.9417 31.1978C65.9392 31.1983 65.9367 31.1983 65.934 31.1983Z" fill="#241726"/>
<path d="M67.0889 31.6612C67.0797 31.6612 67.0703 31.6606 67.0609 31.659C66.9714 31.6437 66.9115 31.5586 66.9269 31.4692L67.4248 28.5686C67.4401 28.4794 67.5251 28.4192 67.6144 28.4345C67.7039 28.4498 67.7637 28.5348 67.7484 28.6244L67.2505 31.525C67.2369 31.6048 67.1675 31.6612 67.0889 31.6612Z" fill="#241726"/>
<path d="M63.1416 34.7964C63.1416 34.7964 63.2795 44.7867 62.576 45.065C61.8726 45.3433 55.1202 41.129 55.1202 41.129L39.3537 42.3128L23.5607 43.63C23.5607 43.63 8.69727 50.42 8.55665 52.6709C8.41602 54.9217 15.8893 59.0476 15.8893 59.0476L19.371 55.4076L12.6345 52.9458L21.5921 49.7342C19.7966 56.2537 19.1466 61.738 19.1466 61.738L31.8904 61.5239L35.2656 70.6711L39.2187 70.3326L39.9713 61.3881L41.2571 61.3665L42.0116 70.3326L45.9648 70.6711L49.4488 61.2289L63.1105 60.9994C63.1105 60.9994 61.1534 53.7511 57.4202 46.0895C60.2199 46.9276 63.8057 48.0026 64.3766 48.1822C65.3335 48.4829 67.9424 36.2887 67.9424 36.2887L63.1416 34.7964Z" fill="#DF4F3E"/>
<path d="M37.4444 39.5238L38.6339 60.2605L18.1511 60.3156L18.5731 64.4808L64.3775 63.1092L63.9248 58.915L41.1292 59.8388C41.1292 59.8388 40.4273 38.7372 39.7944 38.8427C39.1616 38.9481 37.4444 39.5238 37.4444 39.5238Z" fill="white"/>
<path d="M18.5733 64.645C18.4892 64.645 18.4183 64.5816 18.4098 64.4975L17.9878 60.3322C17.9831 60.286 17.9983 60.2402 18.0292 60.2055C18.0603 60.1711 18.1044 60.1513 18.1508 60.1513L38.4603 60.0964L37.2805 39.5328C37.2761 39.4591 37.322 39.3914 37.3922 39.368C37.4628 39.3442 39.1289 38.7872 39.7677 38.6807C39.8133 38.6733 39.8903 38.6947 39.927 38.7249C40.5537 39.238 41.1205 54.6622 41.288 59.6678L63.9184 58.7507C64.0012 58.7494 64.0791 58.8113 64.0883 58.8972L64.5408 63.0913C64.5458 63.1369 64.5314 63.1824 64.5012 63.2167C64.4712 63.2514 64.4281 63.2716 64.3825 63.2732L18.5783 64.645C18.5766 64.645 18.5748 64.645 18.5733 64.645ZM18.333 60.4791L18.7214 64.3121L64.1953 62.9503L63.7784 59.0853L41.1361 60.003C41.0945 60.0033 41.05 59.9889 41.0178 59.9591C40.9858 59.9292 40.967 59.8878 40.9655 59.8442C40.7033 51.9644 40.1647 40.1021 39.7341 39.0213C39.1711 39.1342 37.993 39.5158 37.6155 39.6403L38.798 60.2513C38.8005 60.2961 38.7845 60.3405 38.7536 60.3731C38.7228 60.4058 38.6797 60.4249 38.6345 60.4249L18.333 60.4791Z" fill="#241726"/>
<path d="M23.3979 14.8929C23.3979 14.8929 34.9885 7.624 40.3343 11.8443C45.6799 16.0646 57.8157 26.1176 37.6765 32.6884C17.5373 39.2592 18.4743 18.1284 23.3979 14.8929Z" fill="#E38B72"/>
<path d="M23.8343 16.9165C23.8343 16.9165 17.3493 27.6892 27.056 32.0501C36.7627 36.4111 28.6738 23.1223 35.8482 23.052C43.0225 22.9817 42.5008 32.0889 45.625 26.6392C50.0563 18.9097 37.8371 12.9753 39.6658 12.6939C41.4946 12.4125 42.7569 11.9234 43.3039 12.9936C44.9218 16.1587 63.8425 18.9019 61.7324 29.4526C59.6222 40.0033 53.1511 47.5998 34.5821 48.1625C16.0129 48.7254 11.0189 36.9087 15.8019 28.0461C20.5849 19.1836 18.0733 17.6319 19.6208 17.4912C21.1682 17.3506 23.8343 16.9165 23.8343 16.9165Z" fill="#F4F1E3"/>
<path d="M36.5864 25.3304C36.035 25.3304 34.5328 24.1671 33.8852 23.6437C33.8147 23.5869 33.8038 23.4834 33.8606 23.4127C33.9178 23.3426 34.0208 23.331 34.0917 23.3884C35.025 24.1424 36.1583 24.9294 36.5084 25.0016C36.4809 24.4834 35.4627 22.051 34.4338 19.8674C34.3952 19.7854 34.4303 19.6876 34.5122 19.649C34.5945 19.6105 34.6923 19.6451 34.7308 19.7276C35.4266 21.2038 37.0217 24.6915 36.8084 25.1904C36.7819 25.2523 36.7342 25.2976 36.6741 25.3177C36.6483 25.3262 36.6191 25.3304 36.5864 25.3304Z" fill="#241726"/>
<path d="M37.3719 30.2557C37.2711 30.2557 37.1532 30.2275 37.0191 30.1506C35.4693 29.2628 33.9072 26.1623 33.8416 26.0309C33.801 25.9498 33.834 25.8509 33.9151 25.8106C33.996 25.7698 34.0949 25.8032 34.1354 25.884C34.151 25.9154 35.7185 29.0271 37.1824 29.8657C37.3449 29.9584 37.4296 29.9267 37.4793 29.8946C38.083 29.5034 38.0176 26.4514 37.8344 24.6196C37.8254 24.5295 37.8911 24.449 37.9815 24.44C38.0733 24.43 38.1522 24.4967 38.1613 24.5868C38.2118 25.0923 38.6269 29.542 37.6579 30.17C37.5876 30.2157 37.4918 30.2557 37.3719 30.2557Z" fill="#241726"/>
<path d="M28.4327 24.7678C26.4936 24.7678 25.5302 21.0044 25.4894 20.8412C25.4672 20.7534 25.5208 20.6642 25.6088 20.642C25.697 20.6204 25.7859 20.6734 25.808 20.7617C25.8177 20.7995 26.7878 24.5697 28.5205 24.4359C28.813 24.4144 29.0202 24.2997 29.1536 24.085C29.7225 23.1709 28.8116 20.8858 28.8022 20.8629C28.7683 20.7786 28.8089 20.6829 28.8931 20.649C28.9764 20.6158 29.0728 20.6558 29.1067 20.7398C29.1474 20.8398 30.0891 23.203 29.4325 24.2581C29.2424 24.5637 28.9436 24.7337 28.5447 24.7636C28.507 24.7662 28.4697 24.7678 28.4327 24.7678Z" fill="#241726"/>
<path d="M39.9255 21.8293C39.8632 21.8293 39.795 21.8223 39.7203 21.8065C37.9778 21.4348 37.5313 18.217 37.5132 18.0801C37.5013 17.9903 37.5644 17.9079 37.6542 17.896C37.7439 17.8793 37.8266 17.947 37.8386 18.0371C37.8428 18.0682 38.2721 21.1617 39.7888 21.4853C40.0185 21.534 40.116 21.4606 40.168 21.4006C40.6047 20.9006 40.0691 18.7717 39.6289 17.5471C39.5983 17.4618 39.6425 17.3679 39.728 17.3371C39.8125 17.307 39.9071 17.3509 39.938 17.4362C40.0611 17.7787 41.1216 20.8079 40.4153 21.6165C40.325 21.7203 40.1714 21.8293 39.9255 21.8293Z" fill="#241726"/>
<path d="M27.3014 28.4488C28.0177 28.0193 28.2502 27.0905 27.8208 26.3742C27.3914 25.6579 26.4625 25.4253 25.7462 25.8548C25.0299 26.2842 24.7973 27.213 25.2268 27.9293C25.6562 28.6456 26.585 28.8782 27.3014 28.4488Z" fill="#DF4F3E"/>
<path d="M42.9874 23.1728C43.8226 23.1728 44.4996 22.4958 44.4996 21.6606C44.4996 20.8255 43.8226 20.1484 42.9874 20.1484C42.1523 20.1484 41.4753 20.8255 41.4753 21.6606C41.4753 22.4958 42.1523 23.1728 42.9874 23.1728Z" fill="#DF4F3E"/>
<path d="M37.3905 10.4198C37.3905 10.4198 33.7225 4.48292 27.5758 1.38808C21.4289 -1.70677 12.4258 8.91417 12.4258 8.91417L20.5147 6.66339C20.5147 6.66339 18.988 14.1439 19.6209 14.9656C20.2537 15.7873 37.3905 10.4198 37.3905 10.4198Z" fill="#DF4F3E"/>
<path d="M11.653 11.1667C12.8457 11.1667 13.8126 10.1999 13.8126 9.00719C13.8126 7.81451 12.8457 6.84766 11.653 6.84766C10.4604 6.84766 9.4935 7.81451 9.4935 9.00719C9.4935 10.1999 10.4604 11.1667 11.653 11.1667Z" fill="white"/>
<path d="M11.6532 11.3311C10.3719 11.3311 9.32944 10.2887 9.32944 9.0075C9.32944 7.72625 10.3719 6.68359 11.6532 6.68359C12.9344 6.68359 13.9769 7.72625 13.9769 9.0075C13.9769 10.2887 12.9344 11.3311 11.6532 11.3311ZM11.6532 7.01187C10.5529 7.01187 9.65772 7.90703 9.65772 9.00734C9.65772 10.1073 10.5529 11.0025 11.6532 11.0025C12.7533 11.0025 13.6485 10.1073 13.6485 9.00734C13.6485 7.90703 12.7533 7.01187 11.6532 7.01187Z" fill="#241726"/>
<path d="M18.5726 14.5238C18.5726 14.5238 39.0645 6.74817 40.7476 8.50974C42.4307 10.2713 43.3037 12.9938 43.3037 12.9938C43.3037 12.9938 19.4591 20.8341 18.9668 19.7979C18.4743 18.7616 18.5726 14.5238 18.5726 14.5238Z" fill="white"/>
<path d="M19.3034 20.0552C18.9071 20.0552 18.8576 19.951 18.8182 19.8682C18.3149 18.8088 18.4043 14.6946 18.4084 14.5197C18.4099 14.453 18.4518 14.3936 18.5143 14.3699C20.622 13.5704 39.1574 6.60833 40.866 8.39583C42.5557 10.1646 43.4237 12.8305 43.4598 12.9433C43.4874 13.0293 43.4404 13.1213 43.3548 13.1493C43.2951 13.1691 37.323 15.131 31.3674 16.9411C22.904 19.514 20.2054 20.0552 19.3034 20.0552ZM19.1057 19.7072C20.0495 20.1735 34.2255 15.8024 43.0941 12.8896C42.8821 12.2927 42.0387 10.0986 40.629 8.62301C39.4534 7.39239 26.9334 11.5322 18.7349 14.6379C18.724 15.3038 18.6885 18.7779 19.1057 19.7072Z" fill="#241726"/>
<path d="M20.1385 25.7161C21.0078 24.8468 21.0078 23.4374 20.1385 22.5681C19.2693 21.6989 17.8599 21.6989 16.9906 22.5681C16.1213 23.4374 16.1213 24.8468 16.9906 25.7161C17.8599 26.5853 19.2693 26.5853 20.1385 25.7161Z" fill="#E38B72"/>
<path d="M47.3509 18.1613C48.5803 18.1613 49.5769 17.1648 49.5769 15.9354C49.5769 14.7061 48.5803 13.7095 47.3509 13.7095C46.1216 13.7095 45.125 14.7061 45.125 15.9354C45.125 17.1648 46.1216 18.1613 47.3509 18.1613Z" fill="#E38B72"/>
<path d="M19.2221 25.0241C19.1424 25.0241 19.0724 24.9661 19.0599 24.8849C18.8871 23.7688 18.5752 23.4496 18.3443 23.3782C17.9836 23.2675 17.588 23.6832 17.5838 23.6871C17.5222 23.7535 17.4185 23.7572 17.3518 23.695C17.2855 23.6332 17.2816 23.5299 17.3435 23.4635C17.3652 23.44 17.8819 22.8928 18.4396 23.0638C18.9068 23.2069 19.2246 23.8027 19.3844 24.8349C19.3982 24.9244 19.3369 25.0083 19.2474 25.0222C19.2388 25.0235 19.2304 25.0241 19.2221 25.0241Z" fill="#241726"/>
<path d="M47.0247 17.4319C46.9535 17.4319 46.888 17.3853 46.8671 17.3136C46.5633 16.2731 46.59 15.5044 46.9461 15.0297C47.2808 14.5833 47.7774 14.5781 47.7985 14.5781C47.8893 14.5781 47.9627 14.6516 47.9627 14.7423C47.9627 14.8328 47.8897 14.9059 47.7996 14.9066C47.785 14.9069 47.4391 14.9152 47.2053 15.2314C46.9222 15.6144 46.9143 16.3027 47.1824 17.2219C47.2077 17.3088 47.1578 17.3998 47.0708 17.4252C47.0553 17.4297 47.0399 17.4319 47.0247 17.4319Z" fill="#241726"/>
<path d="M18.0521 3.7297C18.0521 3.7297 20.1623 6.52298 22.9757 5.46783C25.7893 4.41283 24.7341 1.45861 26.5629 4.27205C28.3916 7.08548 32.9355 5.18126 32.8705 5.12298C32.8055 5.0647 29.2357 1.03642 26.2113 0.122046C23.1868 -0.792173 18.0521 3.7297 18.0521 3.7297Z" fill="#F4F1E3"/>
<path d="M18.1505 56.3569C18.1505 56.3569 21.1825 57.9088 20.17 60.7315C19.1575 63.554 13.5944 65.2421 14.7288 63.5843C15.4146 62.5819 18.5271 61.6324 18.5271 61.6324C18.5271 61.6324 14.451 62.9727 13.6766 62.1072C13.2518 61.6324 17.556 60.9421 17.7215 60.9396C17.8869 60.9372 15.2565 61.268 14.6235 60.316C13.9905 59.364 17.6686 61.1049 18.1507 59.2585C18.6327 57.4121 17.314 57.5176 17.314 57.5176L18.1505 56.3569Z" fill="#E38B72"/>
<path d="M20.5343 53.9897C20.5343 53.9897 59.6882 51.1278 59.7585 51.3387C59.8288 51.5497 60.8013 54.0103 60.8013 54.0103L20.1107 55.988L20.5343 53.9897Z" fill="#241726"/>
<path d="M35.6849 51.6621L43.0218 51.0366V56.3572L36.4308 57.0207L35.6849 51.6621Z" fill="#E1AF01"/>
<path d="M37.5195 52.8268L41.188 52.5142V55.1745L37.8925 55.5062L37.5195 52.8268Z" fill="#241726"/>
<path d="M20.5143 6.82763C20.4424 6.82763 20.3765 6.78013 20.3563 6.70731C20.332 6.62013 20.383 6.52966 20.4704 6.50528C21.4213 6.24028 23.4829 6.34966 23.5702 6.35481C23.6609 6.35966 23.7301 6.43731 23.7251 6.52763C23.7202 6.6181 23.6434 6.6906 23.5523 6.68247C23.5315 6.68185 21.4573 6.57153 20.5587 6.82138C20.5438 6.8256 20.5288 6.82763 20.5143 6.82763Z" fill="#241726"/>
<path d="M35.4497 12.669C35.4269 12.669 35.4038 12.6642 35.3819 12.6543C35.2993 12.6168 35.2629 12.5193 35.3005 12.4368C35.4801 12.0426 35.7119 11.8229 35.9897 11.7832C36.3983 11.7268 36.7218 12.0943 36.7354 12.1104C36.7944 12.179 36.7866 12.282 36.7183 12.3413C36.6501 12.4007 36.5465 12.3929 36.4868 12.3249C36.4258 12.2554 36.2257 12.0815 36.0349 12.1085C35.8365 12.1378 35.6885 12.3773 35.5994 12.5729C35.5718 12.6335 35.5121 12.669 35.4497 12.669Z" fill="#241726"/>
<path d="M37.1956 13.6523C37.1727 13.6523 37.1496 13.6475 37.1277 13.6375C37.0451 13.6 37.0088 13.5025 37.0463 13.42C37.2257 13.0257 37.4576 12.8061 37.7356 12.7664C38.1442 12.7087 38.4676 13.0775 38.4812 13.0936C38.5402 13.1621 38.5324 13.2651 38.4642 13.3245C38.3959 13.3839 38.2924 13.3761 38.2326 13.3081C38.1717 13.2386 37.9699 13.0659 37.7807 13.0917C37.5821 13.1209 37.4343 13.3604 37.3452 13.5561C37.3176 13.6167 37.2581 13.6523 37.1956 13.6523Z" fill="#241726"/>
<path d="M33.4013 13.1398C33.3785 13.1398 33.3554 13.1349 33.3335 13.1251C33.251 13.0876 33.2146 12.9901 33.2521 12.9076C33.4315 12.5134 33.6635 12.2934 33.9413 12.2537C34.3519 12.196 34.6733 12.5648 34.6869 12.5809C34.746 12.6495 34.7382 12.7524 34.6699 12.8118C34.6015 12.8712 34.498 12.8638 34.4383 12.7954C34.3774 12.7259 34.1804 12.5471 33.9865 12.5793C33.788 12.6082 33.6401 12.8477 33.5508 13.0437C33.5233 13.1041 33.4637 13.1398 33.4013 13.1398Z" fill="#241726"/>
<path d="M35.1306 14.0306C35.1077 14.0306 35.0848 14.0258 35.0627 14.0159C34.9801 13.9784 34.9438 13.8809 34.9813 13.7984C35.1607 13.4042 35.3926 13.1842 35.6706 13.1445C36.0802 13.0858 36.4027 13.4556 36.4162 13.4717C36.4752 13.5403 36.4674 13.6433 36.3992 13.7026C36.3307 13.762 36.2273 13.7547 36.1676 13.6862C36.1067 13.6167 35.9095 13.4373 35.7157 13.4701C35.5173 13.499 35.3693 13.7386 35.2802 13.9345C35.2526 13.995 35.1931 14.0306 35.1306 14.0306Z" fill="#241726"/>
<path d="M33.013 14.7166C32.9902 14.7166 32.9671 14.7118 32.9452 14.7019C32.8626 14.6644 32.8262 14.5669 32.8638 14.4844C33.0432 14.0902 33.2752 13.8702 33.553 13.8305C33.9634 13.7718 34.2851 14.1416 34.2987 14.1577C34.3577 14.2263 34.3499 14.3293 34.2816 14.3887C34.2132 14.448 34.1098 14.4405 34.0501 14.3723C33.9891 14.3027 33.7904 14.1243 33.5982 14.1562C33.3998 14.1851 33.2518 14.4246 33.1626 14.6205C33.1351 14.6812 33.0754 14.7166 33.013 14.7166Z" fill="#241726"/>
<path d="M62.873 34.2173L62.6875 35.9484L68.375 37.772L69.0859 35.7937L62.873 34.2173Z" fill="white"/>
<path d="M68.375 37.9365C68.3583 37.9365 68.3414 37.934 68.3248 37.9288L62.6375 36.1049C62.5634 36.0808 62.5161 36.0083 62.5244 35.9307L62.7097 34.1997C62.7147 34.1526 62.7402 34.1096 62.7791 34.0827C62.8181 34.0555 62.8672 34.0465 62.9133 34.0583L69.1263 35.6351C69.1711 35.6463 69.2092 35.6762 69.2308 35.7171C69.2527 35.7579 69.2559 35.806 69.2405 35.8496L68.5295 37.8279C68.5055 37.8944 68.4425 37.9365 68.375 37.9365ZM62.8652 35.8329L68.2742 37.5674L68.8703 35.909L63.0161 34.423L62.8652 35.8329Z" fill="#241726"/>
<path d="M18.3433 54.0283L14.4991 58.7482L16.0392 59.8389L20.3711 54.7349L18.3433 54.0283Z" fill="white"/>
<path d="M16.0391 60.003C16.0063 60.003 15.973 59.993 15.9442 59.9728L14.4039 58.8821C14.3669 58.8558 14.3424 58.8153 14.3361 58.7702C14.33 58.7253 14.3428 58.6797 14.3716 58.6444L18.216 53.9246C18.2595 53.8706 18.332 53.8499 18.3974 53.8733L20.4252 54.5799C20.4763 54.5975 20.5153 54.6396 20.5296 54.6914C20.5438 54.7438 20.5313 54.7999 20.4964 54.841L16.1645 59.9449C16.1322 59.9831 16.086 60.003 16.0391 60.003ZM14.7374 58.7156L16.0114 59.6178L20.0911 54.8111L18.3981 54.2213L14.7374 58.7156Z" fill="#241726"/>
<path d="M34.3029 47.0243C34.0696 47.0243 33.8241 47.0042 33.5662 46.9598C32.1085 46.7097 31.1234 46.1109 30.507 45.4389C30.4995 45.4481 30.492 45.4575 30.4841 45.4664C29.9799 46.07 28.8248 46.9864 26.7521 46.3362C24.8974 45.7548 24.0501 44.7364 23.7296 43.789C23.3371 44.2647 22.8532 44.6778 22.3293 44.8712C21.7354 45.0906 20.8443 45.1165 19.9801 43.9922C19.0798 42.8209 18.9154 41.8508 18.9868 41.1595C18.7624 41.1903 18.5313 41.2012 18.2991 41.1878C17.3018 41.129 16.5516 40.6192 16.187 39.7518C15.5987 38.3529 16.0913 37.0033 16.7718 36.1645C16.3051 35.8729 15.7599 35.3081 15.6338 34.2364C15.4741 32.8793 16.2137 31.7145 17.0602 30.9737C16.666 30.6876 16.3588 30.272 16.1832 29.7662C15.9607 29.1257 15.9824 28.5725 16.2476 28.1212C16.6899 27.3681 17.6445 27.1925 17.6849 27.1853C17.7746 27.1679 17.8591 27.2289 17.8749 27.3181C17.8909 27.4076 17.8313 27.4926 17.7421 27.5086C17.7338 27.5101 16.8937 27.6673 16.5296 28.2892C16.3165 28.6532 16.3043 29.114 16.4934 29.6584C16.6873 30.2165 17.0155 30.5532 17.3279 30.7562C17.7251 30.4561 18.1276 30.252 18.4573 30.1661C19.0601 30.0101 19.2457 30.2876 19.298 30.4143C19.3968 30.6532 19.3716 30.8842 19.2271 31.0651C19.0063 31.3409 18.527 31.4625 18.004 31.3717C17.7748 31.3326 17.5576 31.2592 17.3568 31.1562C16.5512 31.8339 15.8113 32.9362 15.9599 34.1979C16.0752 35.1778 16.5815 35.6717 16.994 35.9148C17.2055 35.6989 17.4254 35.5325 17.6296 35.4279C18.0971 35.1887 18.4985 35.2476 18.7043 35.5845C18.8876 35.885 18.7863 36.1015 18.7098 36.2036C18.494 36.4918 17.9488 36.5872 17.384 36.4351C17.3095 36.4153 17.1993 36.3803 17.0698 36.3229C16.4391 37.0786 15.9502 38.3431 16.4895 39.6251C16.8913 40.5806 17.7057 40.824 18.3182 40.8603C18.5605 40.874 18.8065 40.857 19.0443 40.817C19.0832 40.6528 19.1338 40.5114 19.1846 40.3943C19.4449 39.7968 19.9448 39.3498 20.4001 39.3067C20.6248 39.2856 20.8112 39.3664 20.9255 39.5343C21.0515 39.7187 21.0529 39.9401 20.9299 40.1572C20.7148 40.5365 20.0841 40.9234 19.3252 41.0978C19.2352 41.7239 19.3585 42.6453 20.2401 43.7922C20.7377 44.4397 21.2851 44.729 21.8677 44.6507C22.5495 44.56 23.1715 43.9978 23.6229 43.3906C23.5255 42.8954 23.5618 42.4418 23.656 42.11C23.8115 41.5625 24.1329 41.2511 24.4554 41.3325C24.5268 41.3507 24.6943 41.4233 24.709 41.7023C24.729 42.089 24.4441 42.8022 23.9763 43.4653C24.2085 44.3832 24.9734 45.4348 26.8498 46.0228C28.741 46.6161 29.7801 45.7973 30.2316 45.2562C30.2518 45.2318 30.2718 45.2075 30.2912 45.1825C29.8282 44.5779 29.6415 43.9432 29.6605 43.4673C29.6841 42.8723 30.0038 42.4753 30.4951 42.4304C30.7651 42.4064 30.9865 42.5337 31.1204 42.7893C31.387 43.2976 31.2673 44.3204 30.7026 45.1732C31.2699 45.8122 32.2065 46.3932 33.6213 46.6361C35.7385 47.0014 36.9446 45.5904 37.3649 44.9679C37.4865 44.7873 37.5912 44.6042 37.6793 44.4237C37.2296 43.7628 37.0193 43.0943 37.1646 42.6909C37.2424 42.4751 37.4165 42.339 37.6548 42.3076C37.8999 42.2759 38.1013 42.3679 38.2245 42.5675C38.4584 42.9459 38.3795 43.6558 38.0574 44.3904C38.1596 44.5275 38.2741 44.6656 38.4015 44.8026C38.9305 45.3709 40.3721 46.635 42.3351 46.0836C44.099 45.5884 44.9559 44.0739 45.1884 42.7782C44.4809 42.2782 44.0173 41.6926 43.9319 41.2384C43.8588 40.8484 44.056 40.5562 44.4593 40.4565C44.9398 40.3386 45.3251 40.6467 45.4926 41.2822C45.5876 41.6417 45.6082 42.109 45.5393 42.6173C46.4234 43.1984 47.6865 43.6504 49.097 43.4668C50.318 43.3087 50.8321 42.2067 51.0482 41.3103C51.1904 40.7198 51.2327 40.0876 51.2016 39.4989C50.3573 38.9056 49.7399 38.1336 49.6251 37.6126C49.5412 37.2315 49.7165 37.0453 49.8284 36.9683C50.0984 36.7818 50.3868 36.7761 50.6407 36.9503C51.1187 37.2784 51.4387 38.2348 51.5191 39.3192C52.008 39.6397 52.566 39.8929 53.1268 39.9895C54.2185 40.1765 55.0896 39.7618 55.7168 38.7554C56.779 37.0514 56.277 35.7357 55.8282 35.0517C55.4441 35.0629 55.0888 35.0112 54.783 34.9097C54.2104 34.7195 53.8543 34.3634 53.8304 33.9572C53.8193 33.7704 53.9035 33.6278 54.0615 33.5653C54.4684 33.4053 55.2754 33.8431 55.8601 34.5442C55.902 34.5942 55.9474 34.6517 55.9948 34.7164C56.909 34.6439 57.9696 34.1884 58.8216 33.1768C59.9048 31.8907 59.2932 30.1136 58.4034 29.017C58.1265 29.1748 57.8784 29.2162 57.7218 29.2233C57.2141 29.2437 56.7291 28.985 56.5684 28.6007C56.462 28.3457 56.5201 28.0892 56.7282 27.8972C57.0513 27.5986 57.6409 27.7859 58.2668 28.3837C58.3313 28.4456 58.3962 28.5117 58.4609 28.5818C58.8195 28.282 59.1212 27.7762 59.3318 27.1023C59.8854 25.3312 58.6887 23.9232 57.5423 23.369C57.4313 23.7379 57.2137 23.9793 57.0677 24.1073C56.602 24.5165 55.9207 24.6314 55.549 24.3629C55.4226 24.2715 55.1545 23.9979 55.3957 23.4278C55.6557 22.8133 56.3891 22.6148 57.2799 22.9086C57.286 22.5573 57.1757 22.16 56.9477 21.7389C56.1935 20.3443 54.9379 19.922 53.9849 19.939C53.9705 20.0573 53.9441 20.1761 53.9055 20.2943C53.7223 20.8556 53.3032 21.2697 52.9093 21.2787C52.6635 21.2778 52.4668 21.1315 52.364 20.8595C52.2109 20.4545 52.4362 20.0564 52.952 19.8207C53.1599 19.7254 53.4023 19.6593 53.6655 19.6273C53.6432 19.2543 53.4748 18.7845 52.9121 18.3531C51.1323 16.9884 49.4266 18.5956 49.3549 18.6648C49.2898 18.7273 49.1859 18.7257 49.1227 18.6603C49.0599 18.5951 49.0616 18.4912 49.1268 18.4284C49.1463 18.4092 51.1062 16.5545 53.112 18.0926C53.6515 18.5061 53.9571 19.0426 53.9943 19.6054C55.1021 19.5875 56.4588 20.1442 57.2366 21.5823C57.5555 22.1722 57.6395 22.6539 57.6057 23.0362C58.8896 23.62 60.2707 25.1986 59.6451 27.2004C59.3812 28.0453 59.0209 28.5404 58.6735 28.829C59.5962 29.9753 60.3304 31.8948 59.0727 33.3884C58.2135 34.4086 57.1487 34.9022 56.1974 35.0231C56.6616 35.8092 57.0807 37.1879 55.9954 38.9292C55.1174 40.3378 53.9205 40.4587 53.071 40.3131C52.5338 40.2208 52.0095 40.0017 51.5376 39.7178C51.5482 40.2784 51.4949 40.8567 51.3671 41.3872C51.0274 42.7961 50.236 43.6504 49.1385 43.7926C47.7416 43.9736 46.4345 43.5595 45.4777 42.9697C45.1888 44.3395 44.2624 45.8837 42.4235 46.3998C40.287 47 38.7307 45.639 38.1607 45.0262C38.0674 44.9262 37.9793 44.8236 37.897 44.72C37.8191 44.8656 37.7323 45.0103 37.6366 45.1517C37.2327 45.7514 36.1548 47.024 34.3029 47.0243ZM30.5616 42.7556C30.549 42.7556 30.5366 42.7565 30.5252 42.7575C30.2063 42.7864 30.0059 43.0567 29.989 43.4804C29.9732 43.8759 30.1216 44.3948 30.4862 44.9025C30.9324 44.177 31.0385 43.3395 30.8298 42.9415C30.7476 42.7847 30.6435 42.7556 30.5616 42.7556ZM37.7493 42.6298C37.7329 42.6298 37.7159 42.6307 37.6976 42.6334C37.5809 42.6484 37.5098 42.7023 37.4737 42.8022C37.3854 43.0475 37.5068 43.5264 37.8351 44.0626C38.0537 43.4798 38.0871 42.9697 37.9452 42.74C37.8991 42.6648 37.8374 42.6298 37.7493 42.6298ZM24.3527 41.6433C24.2604 41.6433 24.0798 41.8218 23.9726 42.1997C23.9121 42.4126 23.8793 42.682 23.8996 42.9812C24.0363 42.757 24.1462 42.54 24.2238 42.3514C24.4224 41.869 24.3863 41.6711 24.3657 41.6448C24.3616 41.6439 24.3571 41.6433 24.3527 41.6433ZM44.6493 40.7609C44.6143 40.7609 44.5774 40.7654 44.5385 40.775C44.3012 40.8337 44.2138 40.9578 44.2551 41.1775C44.3154 41.4982 44.6723 41.969 45.2393 42.4036C45.2749 42.01 45.2507 41.6507 45.1752 41.3654C45.1132 41.1295 44.9651 40.7609 44.6493 40.7609ZM20.4695 39.6317C20.4574 39.6317 20.4448 39.6323 20.4313 39.6336C20.1429 39.6604 19.7255 39.9758 19.4862 40.5251C19.459 40.5876 19.4321 40.6579 19.4076 40.7359C19.997 40.5726 20.484 40.2782 20.6446 39.995C20.7252 39.8526 20.689 39.7692 20.6548 39.7189C20.6393 39.6965 20.5951 39.6317 20.4695 39.6317ZM50.2535 37.1518C50.1774 37.1518 50.0988 37.1808 50.0151 37.2384C49.986 37.2583 49.8973 37.3195 49.9462 37.5415C50.0384 37.9604 50.512 38.5601 51.1652 39.0662C51.0605 38.1772 50.7887 37.4498 50.4552 37.2207C50.3882 37.175 50.3218 37.1518 50.2535 37.1518ZM17.3098 36.0662C17.3734 36.09 17.4279 36.1067 17.4696 36.1179C17.9354 36.2443 18.3326 36.16 18.4471 36.007C18.4649 35.9833 18.519 35.9111 18.4241 35.7559C18.2762 35.5134 17.9566 35.6295 17.7793 35.7203C17.6295 35.7968 17.4687 35.9145 17.3098 36.0662ZM54.2551 33.859C54.2259 33.859 54.2015 33.8629 54.1829 33.8703C54.1699 33.8754 54.1552 33.8812 54.1587 33.9376C54.1741 34.2009 54.4532 34.4537 54.887 34.5976C55.0952 34.6668 55.3299 34.7098 55.5816 34.7225C55.0638 34.1159 54.4949 33.859 54.2551 33.859ZM17.6534 30.9276C17.8279 31.0004 17.9752 31.0339 18.0599 31.0483C18.453 31.1159 18.828 31.0386 18.9707 30.86C19.0399 30.7734 19.0479 30.6689 18.9948 30.5403C18.9345 30.3943 18.6318 30.4604 18.5399 30.4842C18.2829 30.5511 17.9707 30.704 17.6534 30.9276ZM57.1109 28.0843C57.0451 28.0843 56.9909 28.1017 56.9516 28.1379C56.8463 28.2351 56.8195 28.3479 56.872 28.4737C56.9635 28.6928 57.2946 28.9198 57.7071 28.8948C57.8726 28.8872 58.0324 28.8436 58.1846 28.7659C58.137 28.7156 58.0887 28.6672 58.0404 28.6209C57.6865 28.2826 57.333 28.0843 57.1109 28.0843ZM56.5127 23.1054C56.1571 23.1054 55.8384 23.2254 55.6987 23.5554C55.6234 23.7337 55.5696 23.972 55.7418 24.0965C55.9602 24.2543 56.4693 24.1959 56.8515 23.8604C57.0454 23.6901 57.1738 23.4804 57.2363 23.2401C57.0071 23.1593 56.7515 23.1054 56.5127 23.1054ZM53.6488 19.965C53.4324 19.9951 53.2415 20.0493 53.0891 20.1189C52.9218 20.1956 52.5459 20.4095 52.6718 20.7429C52.7512 20.9529 52.8665 20.9543 52.9023 20.9498C53.1174 20.945 53.4432 20.6537 53.594 20.192C53.6134 20.1323 53.6341 20.0554 53.6488 19.965Z" fill="#241726"/>
<path d="M34.019 69.939L39.5365 69.5112L39.354 71.0883L34.7146 71.4436L34.019 69.939Z" fill="white"/>
<path d="M39.6549 69.3976C39.6209 69.3623 39.5721 69.3431 39.5238 69.3479L34.0065 69.7757C33.9529 69.7796 33.9046 69.8098 33.8776 69.8562C33.8504 69.9027 33.8476 69.9595 33.8701 70.0082L34.5657 71.5128C34.5926 71.5712 34.651 71.6081 34.7148 71.6081C34.719 71.6081 34.7231 71.6081 34.7273 71.6077L35.7599 71.5285C35.9863 73.2512 29.7398 73.5373 33.6995 74.3426C37.2984 75.0746 37.4059 72.4092 37.3709 71.6881L37.5327 73.7448L38.834 73.3579L38.4826 71.3198L39.3667 71.252C39.4451 71.2462 39.5082 71.1853 39.5173 71.1073L39.6998 69.5303C39.7052 69.4817 39.6888 69.4328 39.6549 69.3976ZM39.2065 70.9351L34.8159 71.2712L34.2673 70.0848L39.3506 69.6906L39.2065 70.9351Z" fill="#241726"/>
<path d="M41.5299 69.0532L47.0937 69.2782L46.6765 70.9065L41.5299 71.0884V69.0532Z" fill="white"/>
<path d="M45.4906 71.1127L46.6823 71.0705C46.7551 71.068 46.8174 71.0176 46.8356 70.9471L47.2529 69.3188C47.2653 69.2707 47.2551 69.2198 47.2257 69.1799C47.196 69.1401 47.1501 69.116 47.1006 69.1138L41.5367 68.8887C41.496 68.8899 41.4487 68.9034 41.4163 68.9345C41.3842 68.9652 41.3659 69.0082 41.3659 69.0527V71.088C41.3659 71.1326 41.384 71.1752 41.416 71.206C41.4467 71.2359 41.4876 71.2523 41.5301 71.2523C41.532 71.2523 41.534 71.2523 41.5359 71.2523L42.7334 71.2099L42.3973 73.3574L43.6985 73.7443L43.8604 71.6876C43.8256 72.4087 43.9329 75.0741 47.5318 74.3421C51.5557 73.524 45.1196 73.1338 45.4906 71.1127ZM41.694 69.2238L46.8843 69.434L46.5479 70.7466L41.694 70.9182V69.2238Z" fill="#241726"/>
</svg>
